<svg width="226" height="289" viewBox="0 0 226 289" fill="none" xmlns="http://www.w3.org/2000/svg">
<path d="M205.432 139.128H133.32V97.3984H205.432V139.128ZM133.76 138.688H204.992V97.8384H133.76V138.688Z" fill="#E0E0E0"/>
<path d="M190.556 119.649H142.979V121.044H190.556V119.649Z" fill="#F0F0F0"/>
<path d="M193.834 124.85H142.979V126.372H193.834V124.85Z" fill="#F0F0F0"/>
<path d="M193.834 130.112H142.979V131.635H193.834V130.112Z" fill="#F0F0F0"/>
<path d="M159.606 112.094H142.979V115.715H159.606V112.094Z" fill="#F0F0F0"/>
<path d="M205.211 97.6184H133.553V104.262H205.211V97.6184Z" fill="#E0E0E0"/>
<path d="M199.698 103.268C199.605 103.18 200.529 102.067 201.757 100.782C202.985 99.4971 204.063 98.5247 204.151 98.6083C204.239 98.6919 203.319 99.8095 202.091 101.099C200.864 102.388 199.786 103.356 199.698 103.268Z" fill="white"/>
<path d="M204.16 103.268C204.072 103.356 202.999 102.388 201.767 101.099C200.535 99.8095 199.615 98.6963 199.708 98.6083C199.8 98.5203 200.869 99.4883 202.101 100.782C203.333 102.076 204.244 103.18 204.16 103.268Z" fill="white"/>
<path d="M116.697 14.9819H45.0391V56.2759H116.697V14.9819Z" fill="#E6E6E6"/>
<path d="M102.044 37.0171H54.4668V38.4119H102.044V37.0171Z" fill="#F0F0F0"/>
<path d="M105.322 42.218H54.4668V43.7404H105.322V42.218Z" fill="#F0F0F0"/>
<path d="M105.322 47.4802H54.4668V49.0026H105.322V47.4802Z" fill="#F0F0F0"/>
<path d="M71.0944 29.4624H54.4668V33.0836H71.0944V29.4624Z" fill="#F0F0F0"/>
<path d="M116.697 14.9819H45.0391V21.6259H116.697V14.9819Z" fill="#E0E0E0"/>
<path d="M110.942 20.6007C110.85 20.5171 111.774 19.3995 113.001 18.1147C114.229 16.8299 115.307 15.8575 115.395 15.9455C115.483 16.0335 114.563 17.1467 113.336 18.4315C112.108 19.7163 111.03 20.6799 110.942 20.6007Z" fill="white"/>
<path d="M115.395 20.6007C115.307 20.6887 114.233 19.7207 113.001 18.4315C111.769 17.1423 110.85 16.0335 110.942 15.9455C111.034 15.8575 112.104 16.8255 113.336 18.1147C114.568 19.4039 115.487 20.5171 115.395 20.6007Z" fill="white"/>
<path d="M89.5574 91.6915H17.459V49.9575H89.5574V91.6915ZM17.899 91.2515H89.1174V50.3975H17.899V91.2515Z" fill="#E0E0E0"/>
<path d="M74.6846 72.2126H27.1074V73.6074H74.6846V72.2126Z" fill="#F0F0F0"/>
<path d="M77.9626 77.4136H27.1074V78.936H77.9626V77.4136Z" fill="#F0F0F0"/>
<path d="M77.9626 82.676H27.1074V84.1984H77.9626V82.676Z" fill="#F0F0F0"/>
<path d="M43.735 64.658H27.1074V68.2792H43.735V64.658Z" fill="#F0F0F0"/>
<path d="M89.3381 50.1775H17.6797V56.8215H89.3381V50.1775Z" fill="#E0E0E0"/>
<path d="M172.766 101.253H88.1543V177.003H172.766V101.253Z" fill="#E6E6E6"/>
<path d="M92.4086 77.3916H26.127V146.256H92.4086V77.3916Z" fill="#F0F0F0"/>
<path d="M92.4086 77.3916H26.127V84.8936H92.4086V77.3916Z" fill="#E0E0E0"/>
<path d="M31.5997 81.0655C31.5877 81.3376 31.496 81.6001 31.3361 81.8205C31.1761 82.0409 30.955 82.2095 30.7001 82.3053C30.4452 82.4012 30.1678 82.4201 29.9023 82.3597C29.6368 82.2993 29.3948 82.1622 29.2065 81.9656C29.0181 81.7689 28.8917 81.5212 28.8429 81.2533C28.794 80.9854 28.8249 80.7091 28.9317 80.4586C29.0385 80.2081 29.2165 79.9945 29.4437 79.8442C29.6708 79.694 29.937 79.6138 30.2093 79.6135C30.5859 79.6228 30.9435 79.7807 31.2041 80.0527C31.4646 80.3248 31.6068 80.6889 31.5997 81.0655Z" fill="white"/>
<path d="M37.2455 81.0655C37.2342 81.3389 37.1429 81.6029 36.9828 81.8247C36.8227 82.0465 36.6008 82.2163 36.3449 82.313C36.089 82.4098 35.8104 82.4291 35.5436 82.3686C35.2768 82.3082 35.0336 82.1706 34.8444 81.973C34.6552 81.7754 34.5283 81.5265 34.4794 81.2574C34.4306 80.9882 34.462 80.7106 34.5697 80.4591C34.6774 80.2077 34.8567 79.9934 35.0852 79.8431C35.3138 79.6927 35.5815 79.6129 35.8551 79.6135C36.2316 79.6228 36.5892 79.7807 36.8498 80.0527C37.1103 80.3248 37.2525 80.6889 37.2455 81.0655Z" fill="white"/>
<path d="M42.8919 81.0655C42.8807 81.3389 42.7894 81.6029 42.6293 81.8247C42.4691 82.0465 42.2473 82.2163 41.9914 82.313C41.7355 82.4098 41.4568 82.4291 41.19 82.3686C40.9232 82.3082 40.6801 82.1706 40.4909 81.973C40.3017 81.7754 40.1748 81.5265 40.1259 81.2574C40.0771 80.9882 40.1085 80.7106 40.2162 80.4591C40.3239 80.2077 40.5032 79.9934 40.7317 79.8431C40.9603 79.6927 41.228 79.6129 41.5015 79.6135C41.8781 79.6228 42.2357 79.7807 42.4963 80.0527C42.7568 80.3248 42.899 80.6889 42.8919 81.0655Z" fill="white"/>
<path d="M195.967 30.0432H111.355V114.374H195.967V30.0432Z" fill="#F0F0F0"/>
<path d="M195.967 30.0432H111.355V39.9212H195.967V30.0432Z" fill="#E0E0E0"/>
<path d="M118.562 34.8832C118.547 35.2423 118.426 35.589 118.215 35.8801C118.005 36.1713 117.713 36.3941 117.377 36.5209C117.04 36.6477 116.674 36.6729 116.324 36.5934C115.973 36.5139 115.654 36.3332 115.405 36.0737C115.156 35.8143 114.989 35.4874 114.924 35.1339C114.86 34.7803 114.9 34.4155 115.041 34.0848C115.182 33.7541 115.417 33.4721 115.717 33.2738C116.017 33.0755 116.368 32.9696 116.728 32.9692C117.224 32.9808 117.696 33.1887 118.04 33.5474C118.384 33.9061 118.572 34.3864 118.562 34.8832Z" fill="white"/>
<path d="M125.458 33.5896C125.702 33.8545 125.862 34.1854 125.92 34.5409C125.977 34.8964 125.928 35.2609 125.78 35.589C125.631 35.917 125.39 36.1942 125.085 36.3858C124.78 36.5775 124.425 36.6752 124.065 36.6668C123.705 36.6584 123.356 36.5443 123.06 36.3386C122.765 36.1329 122.536 35.8448 122.403 35.5102C122.27 35.1755 122.239 34.8092 122.312 34.4567C122.386 34.1042 122.562 33.7813 122.818 33.528C123.177 33.1868 123.656 33.0017 124.151 33.0132C124.646 33.0248 125.116 33.232 125.458 33.5896Z" fill="white"/>
<path d="M133.426 34.8832C133.41 35.2423 133.29 35.589 133.079 35.8801C132.868 36.1713 132.576 36.3941 132.24 36.5209C131.904 36.6477 131.537 36.6729 131.187 36.5934C130.836 36.5139 130.517 36.3332 130.268 36.0737C130.019 35.8143 129.852 35.4874 129.788 35.1339C129.723 34.7803 129.764 34.4155 129.905 34.0848C130.046 33.7541 130.28 33.4721 130.58 33.2738C130.88 33.0755 131.231 32.9696 131.591 32.9692C132.088 32.9808 132.56 33.1887 132.904 33.5474C133.247 33.9061 133.435 34.3864 133.426 34.8832Z" fill="white"/>
<path d="M177.69 199.377C177.69 199.439 147.136 199.492 109.459 199.492C71.7816 199.492 41.2148 199.439 41.2148 199.377C41.2148 199.315 71.764 199.263 109.459 199.263C147.154 199.263 177.69 199.32 177.69 199.377Z" fill="#263238"/>
<path d="M147.919 145.512C141.121 140.765 139.581 131.952 139.849 124.027C139.893 122.707 139.748 121.308 140.377 120.151C141.006 118.994 142.476 118.197 143.659 118.752C144.641 119.214 145.067 120.358 145.617 121.304C146.351 122.564 147.427 123.59 148.719 124.265C149.56 124.705 150.603 124.969 151.434 124.511C152.578 123.882 152.71 122.311 152.701 120.991C152.701 118.536 152.687 116.084 152.657 113.634C152.578 112.319 152.712 111 153.053 109.727C153.463 108.478 154.373 107.32 155.619 106.968C156.864 106.616 158.417 107.342 158.699 108.627C158.747 109.171 158.76 109.718 158.738 110.264C158.773 110.814 159.029 111.417 159.543 111.584C160.058 111.751 160.595 111.368 160.991 110.981C162.346 109.661 163.27 107.941 164.128 106.242C164.986 104.544 165.827 102.797 167.059 101.35C168.291 99.902 169.993 98.7536 171.899 98.6436C173.804 98.5336 175.788 99.704 176.263 101.552C176.739 103.4 175.661 105.288 174.503 106.788C172.757 109.015 170.699 110.979 168.392 112.618C167.941 112.864 167.582 113.248 167.367 113.714C167.081 114.594 167.912 115.474 168.779 115.751C169.76 116.076 170.825 115.975 171.859 116.098C172.893 116.222 173.993 116.67 174.385 117.638C174.921 118.985 173.795 120.393 172.691 121.317C170.473 123.165 167.955 124.619 165.246 125.616C164.278 125.968 163.261 126.28 162.478 126.958C161.695 127.635 161.229 128.819 161.699 129.747C162.17 130.676 163.38 130.97 164.397 130.781C165.413 130.592 166.315 130.046 167.283 129.681C169.091 128.999 171.423 129.122 172.563 130.684C172.916 131.222 173.139 131.835 173.216 132.474C173.292 133.113 173.219 133.761 173.003 134.367C172.563 135.573 171.885 136.679 171.01 137.619C168.128 141.062 164.384 143.678 160.159 145.2C155.966 146.652 152.081 147.048 147.914 145.521" fill="#FF6A00"/>
<path d="M174.327 99.7305C174.327 99.7305 174.288 99.7745 174.2 99.8537L173.808 100.201C173.465 100.509 172.959 100.958 172.321 101.552C170.512 103.232 168.832 105.045 167.296 106.977C166.315 108.196 165.299 109.578 164.216 111.078C163.134 112.578 162.016 114.198 160.907 115.918C159.725 117.732 158.643 119.609 157.665 121.541C157.154 122.549 156.705 123.6 156.243 124.674L154.879 127.952C153.081 132.081 151.516 136.307 150.189 140.611C149.12 144.132 148.384 147.746 147.989 151.404C147.733 153.873 147.692 156.36 147.866 158.836C147.936 159.716 148.002 160.389 148.064 160.846C148.09 161.066 148.108 161.242 148.125 161.37V161.55C148.106 161.493 148.093 161.434 148.086 161.374C148.064 161.247 148.037 161.075 148.002 160.855C147.923 160.415 147.839 159.72 147.76 158.84C147.548 156.359 147.563 153.864 147.804 151.386C148.175 147.712 148.895 144.082 149.956 140.545C151.271 136.229 152.833 131.992 154.633 127.855L156.032 124.59C156.494 123.521 156.947 122.461 157.462 121.449C158.447 119.511 159.539 117.63 160.731 115.812C161.858 114.052 162.993 112.46 164.062 110.972C165.131 109.485 166.165 108.095 167.142 106.88C168.694 104.953 170.396 103.153 172.233 101.495C172.884 100.91 173.403 100.47 173.755 100.175L174.165 99.8449C174.215 99.8012 174.269 99.7629 174.327 99.7305Z" fill="#263238"/>
<path d="M157.52 121.44C157.458 121.259 157.415 121.072 157.392 120.881C157.322 120.516 157.243 120.001 157.15 119.333C156.961 118.013 156.768 116.204 156.561 114.202C156.354 112.2 156.121 110.387 155.927 109.081C155.826 108.429 155.738 107.906 155.676 107.541C155.628 107.354 155.603 107.162 155.602 106.969C155.677 107.145 155.732 107.329 155.764 107.519C155.861 107.879 155.971 108.399 156.094 109.054C156.345 110.374 156.592 112.169 156.798 114.176C157.005 116.182 157.181 117.942 157.318 119.311C157.384 119.927 157.441 120.45 157.485 120.868C157.519 121.057 157.531 121.249 157.52 121.44Z" fill="#263238"/>
<path d="M174.45 118.281C174.236 118.327 174.018 118.354 173.798 118.36C173.358 118.4 172.734 118.452 171.959 118.54C170.41 118.708 168.281 119.016 165.944 119.456C163.608 119.896 161.509 120.393 160 120.776C159.248 120.969 158.64 121.145 158.24 121.264C158.026 121.34 157.805 121.393 157.58 121.422C157.783 121.32 157.995 121.236 158.214 121.172C158.627 121.026 159.226 120.824 159.974 120.608C161.474 120.168 163.573 119.645 165.918 119.196C167.905 118.816 169.909 118.537 171.924 118.36C172.703 118.294 173.332 118.268 173.772 118.259C173.998 118.243 174.225 118.251 174.45 118.281Z" fill="#263238"/>
<path d="M150.172 140.237C150.125 140.173 150.087 140.104 150.058 140.03L149.767 139.418C149.517 138.886 149.178 138.098 148.773 137.135C147.955 135.199 146.912 132.488 145.803 129.479C144.694 126.469 143.673 123.759 142.899 121.801C142.521 120.85 142.208 120.072 141.975 119.491L141.729 118.862C141.694 118.789 141.671 118.712 141.658 118.633C141.705 118.697 141.744 118.766 141.773 118.84L142.063 119.451C142.309 119.984 142.653 120.771 143.057 121.735C143.876 123.671 144.919 126.381 146.027 129.391C147.136 132.4 148.157 135.111 148.931 137.069C149.31 138.019 149.622 138.798 149.851 139.379C149.952 139.63 150.036 139.819 150.102 140.008C150.136 140.081 150.16 140.158 150.172 140.237Z" fill="#263238"/>
<path d="M172.646 132.99C172.575 133.03 172.5 133.061 172.421 133.082L171.77 133.302L169.363 134.081C167.33 134.741 164.523 135.683 161.443 136.721C158.363 137.76 155.543 138.684 153.497 139.3C152.476 139.612 151.644 139.85 151.068 140.008L150.404 140.18C150.326 140.204 150.247 140.22 150.166 140.228C150.236 140.188 150.312 140.156 150.39 140.136L151.042 139.916L153.448 139.137C155.481 138.477 158.288 137.535 161.368 136.497C164.448 135.458 167.264 134.534 169.31 133.918C170.336 133.606 171.163 133.368 171.744 133.21L172.408 133.038C172.485 133.014 172.565 132.998 172.646 132.99Z" fill="#263238"/>
<path d="M163.477 26.2593L161.211 27.0689L160.239 24.1077C158.452 18.6473 152.759 15.7477 147.527 17.5913C142.296 19.4349 139.51 25.4233 141.297 30.8837L142.269 33.8449L139.994 34.6589C139.127 34.9953 138.423 35.6531 138.028 36.4955C137.633 37.3379 137.578 38.3001 137.874 39.1821L144.179 58.4497C144.31 58.8863 144.527 59.2921 144.818 59.6431C145.109 59.9941 145.467 60.283 145.872 60.4928C146.276 60.7025 146.719 60.8288 147.174 60.864C147.628 60.8993 148.085 60.8428 148.517 60.6981L172 52.2985C172.879 51.9626 173.593 51.299 173.993 50.4472C174.393 49.5954 174.446 48.6218 174.143 47.7313L167.833 28.4637C167.699 28.0283 167.478 27.6244 167.185 27.2761C166.891 26.9278 166.53 26.6423 166.123 26.4366C165.717 26.2308 165.273 26.1091 164.818 26.0786C164.364 26.0482 163.908 26.1096 163.477 26.2593ZM145.578 29.3393C145.096 27.9195 145.183 26.3684 145.819 25.0109C146.456 23.6535 147.593 22.595 148.992 22.0573C149.683 21.8208 150.415 21.726 151.144 21.7785C151.872 21.8309 152.583 22.0296 153.233 22.3626C153.883 22.6957 154.459 23.1562 154.927 23.7169C155.395 24.2775 155.746 24.9266 155.958 25.6257L156.926 28.5869L146.546 32.3005L145.578 29.3393ZM158.778 46.4377L160.388 51.3569C160.418 51.4555 160.408 51.5617 160.362 51.6535C160.315 51.7453 160.235 51.8155 160.138 51.8497L157.88 52.6549C157.791 52.6798 157.695 52.6689 157.613 52.6246C157.531 52.5803 157.469 52.506 157.44 52.4173L155.817 47.5201C154.922 47.4713 154.063 47.1502 153.355 46.5997C152.647 46.0493 152.124 45.2958 151.857 44.4401C151.474 43.3088 151.544 42.0733 152.052 40.9924C152.559 39.9114 153.465 39.0688 154.58 38.6409C155.131 38.4528 155.714 38.3774 156.294 38.4193C156.874 38.4613 157.44 38.6195 157.958 38.8848C158.475 39.15 158.935 39.5168 159.308 39.9632C159.681 40.4096 159.96 40.9266 160.129 41.4833C160.412 42.3525 160.435 43.2854 160.196 44.1678C159.957 45.0501 159.466 45.8435 158.782 46.4509L158.778 46.4377Z" fill="#FF6A00"/>
<path d="M161.11 27.016C161.11 27.0776 156.908 28.6572 151.681 30.536C146.454 32.4148 142.19 33.924 142.168 33.88C142.146 33.836 146.37 32.2432 151.602 30.36C156.833 28.4768 161.088 26.9588 161.11 27.016Z" fill="#263238"/>
<path d="M166.1 27.8257C166.119 27.8639 166.135 27.9036 166.148 27.9445C166.183 28.0325 166.223 28.1469 166.276 28.2877C166.39 28.6089 166.548 29.0533 166.746 29.6077L168.436 34.5269C169.14 36.6125 169.98 39.0853 170.913 41.8309C171.353 43.2081 171.872 44.6425 172.356 46.1517C172.616 46.9294 172.727 47.7486 172.686 48.5673C172.649 48.9931 172.528 49.4073 172.33 49.7861C172.119 50.1636 171.836 50.4968 171.498 50.7673C170.819 51.2635 170.064 51.6482 169.263 51.9069L166.997 52.7209L162.707 54.2565L155.443 56.8437L150.537 58.5685L149.217 59.0085L148.865 59.1229C148.827 59.1396 148.787 59.15 148.746 59.1537C148.746 59.1537 148.781 59.1537 148.856 59.1009L149.199 58.9645L150.519 58.4673L155.399 56.6721L162.65 54.0321L166.931 52.4833L169.197 51.6649C169.975 51.4167 170.708 51.0437 171.366 50.5605C171.681 50.3095 171.944 50.0002 172.141 49.6497C172.327 49.2993 172.44 48.9144 172.471 48.5189C172.511 47.73 172.404 46.9406 172.154 46.1913C171.679 44.6953 171.177 43.2477 170.724 41.8705C169.809 39.1205 168.964 36.6389 168.295 34.5533C167.626 32.4677 167.063 30.7913 166.676 29.6121C166.491 29.0357 166.35 28.5869 166.236 28.2613L166.13 27.9093C166.117 27.8826 166.107 27.8546 166.1 27.8257Z" fill="#263238"/>
<path d="M153.71 21.758C153.71 21.758 153.477 21.6436 153.046 21.4676C152.431 21.2314 151.781 21.1005 151.123 21.0804C150.147 21.047 149.177 21.2303 148.281 21.6172C147.191 22.099 146.259 22.8783 145.592 23.8656C144.921 24.8501 144.561 26.0136 144.558 27.2052C144.567 28.1819 144.715 29.1523 144.998 30.0872C145.227 30.888 145.465 31.526 145.623 31.9704C145.716 32.1961 145.793 32.4285 145.852 32.6656C145.727 32.4546 145.622 32.2321 145.539 32.0012C145.359 31.5612 145.099 30.9364 144.844 30.1312C144.531 29.1865 144.36 28.2003 144.338 27.2052C144.326 25.9686 144.695 24.7582 145.394 23.738C146.084 22.7146 147.054 21.9112 148.188 21.4236C149.112 21.0346 150.113 20.863 151.114 20.922C151.787 20.9563 152.447 21.1128 153.063 21.384C153.228 21.46 153.387 21.5483 153.539 21.648C153.601 21.6755 153.659 21.7126 153.71 21.758Z" fill="#263238"/>
<path d="M153.912 38.9752C153.982 38.9327 154.056 38.8959 154.132 38.8652C154.352 38.7659 154.581 38.6849 154.814 38.6232C155.185 38.5138 155.568 38.4488 155.954 38.4296C156.479 38.4014 157.005 38.4808 157.498 38.6628C158.625 39.0588 159.659 40.2072 160.169 41.7428C160.414 42.5669 160.414 43.4444 160.169 44.2684C159.898 45.1629 159.411 45.9771 158.752 46.64L158.779 46.5212C159.364 48.1272 160.002 49.8696 160.662 51.6868L160.701 51.7968L160.591 51.8364L159.584 52.1708L157.384 52.9056L157.274 52.9408L157.239 52.8308C156.636 51.0092 155.976 49.3108 155.479 47.6432L155.575 47.718C154.715 47.6466 153.895 47.3237 153.217 46.7896C152.604 46.3171 152.1 45.7165 151.743 45.0296C151.42 44.4205 151.26 43.7387 151.277 43.0496C151.297 42.3454 151.473 41.6544 151.792 41.026C152.11 40.3977 152.564 39.8477 153.12 39.4152C153.349 39.2294 153.606 39.0809 153.881 38.9752C153.633 39.1227 153.392 39.2828 153.16 39.4548C152.549 39.9718 152.081 40.6369 151.8 41.3864C151.559 41.9517 151.447 42.5632 151.47 43.1771C151.494 43.791 151.653 44.3921 151.937 44.9372C152.288 45.598 152.779 46.1745 153.375 46.6268C154.022 47.1345 154.804 47.4405 155.624 47.5068H155.699L155.721 47.5728C156.205 49.2096 156.869 50.9212 157.481 52.7516L157.335 52.6812L159.535 51.9464L160.539 51.6076L160.468 51.7572C159.813 49.94 159.179 48.1932 158.598 46.5872V46.5212L158.651 46.4684C159.291 45.833 159.768 45.0527 160.041 44.1936C160.275 43.4054 160.275 42.5663 160.041 41.778C159.562 40.2996 158.572 39.1776 157.498 38.7816C157.023 38.5984 156.516 38.5131 156.007 38.5308C155.627 38.5395 155.249 38.5912 154.88 38.6848C154.225 38.8476 153.917 38.9972 153.912 38.9752Z" fill="#263238"/>
<path d="M140.312 166.021L96.3601 165.818C93.8219 165.804 91.393 164.784 89.6069 162.98C87.8208 161.177 86.8235 158.738 86.8341 156.2L87.3005 46.0195C87.3057 44.762 87.5586 43.5179 88.0449 42.3582C88.5312 41.1985 89.2413 40.1461 90.1345 39.261C91.0278 38.3759 92.0868 37.6755 93.2509 37.1999C94.415 36.7243 95.6614 36.4828 96.9189 36.4891L140.866 36.6915C143.404 36.7043 145.834 37.724 147.62 39.5266C149.407 41.3292 150.406 43.7674 150.396 46.3055L149.93 156.482C149.925 157.739 149.672 158.984 149.186 160.144C148.7 161.304 147.99 162.357 147.097 163.243C146.203 164.129 145.144 164.83 143.98 165.307C142.816 165.783 141.57 166.026 140.312 166.021Z" fill="#455A64"/>
<path d="M140.8 40.48H132.281C132.004 40.4852 131.729 40.5451 131.474 40.6562C131.22 40.7673 130.989 40.9276 130.796 41.1278C130.604 41.328 130.452 41.5643 130.35 41.8231C130.249 42.0818 130.199 42.3581 130.205 42.636V44.1804C130.21 44.4582 130.16 44.7342 130.059 44.9927C129.957 45.2513 129.806 45.4872 129.613 45.6871C129.42 45.887 129.189 46.0468 128.934 46.1575C128.68 46.2681 128.406 46.3275 128.128 46.332L111.522 46.2572C110.96 46.2423 110.428 46.0049 110.041 45.5974C109.654 45.1899 109.444 44.6454 109.459 44.0836V42.5392C109.473 41.9782 109.264 41.4344 108.878 41.027C108.492 40.6196 107.96 40.3818 107.399 40.3656H104.403L96.945 40.3304C95.1711 40.3199 93.4653 41.0127 92.2011 42.2571C90.9369 43.5015 90.2173 45.1962 90.1998 46.97L89.7598 154.515C89.7558 155.395 89.9251 156.267 90.2581 157.082C90.5912 157.896 91.0814 158.637 91.7008 159.262C92.3202 159.887 93.0566 160.384 93.8681 160.725C94.6796 161.065 95.5502 161.243 96.4302 161.247L140.289 161.449C141.17 161.453 142.043 161.284 142.858 160.951C143.673 160.617 144.415 160.127 145.04 159.507C145.666 158.887 146.163 158.15 146.504 157.338C146.844 156.526 147.022 155.655 147.026 154.774L147.466 47.2296C147.476 45.4508 146.78 43.7405 145.53 42.4749C144.28 41.2092 142.579 40.4917 140.8 40.48Z" fill="white"/>
<path d="M134.9 147.101L102.287 146.96C101.948 146.96 101.675 146.59 101.68 146.142L101.715 137.61C101.715 137.17 101.992 136.792 102.331 136.792L134.944 136.941C135.131 136.974 135.299 137.077 135.413 137.231C135.526 137.384 135.575 137.575 135.551 137.764L135.52 146.287C135.52 146.74 135.239 147.105 134.9 147.101Z" fill="#FF6A00"/>
<path d="M112.268 143.025C112.053 143.025 111.847 142.99 111.648 142.922C111.453 142.85 111.301 142.759 111.194 142.649L111.314 142.414C111.416 142.513 111.552 142.597 111.723 142.665C111.896 142.732 112.078 142.765 112.268 142.765C112.45 142.765 112.597 142.743 112.71 142.699C112.825 142.652 112.909 142.59 112.962 142.513C113.017 142.436 113.044 142.35 113.044 142.257C113.044 142.144 113.011 142.053 112.945 141.984C112.882 141.915 112.798 141.861 112.693 141.823C112.589 141.782 112.473 141.746 112.346 141.716C112.22 141.685 112.093 141.654 111.966 141.621C111.84 141.585 111.723 141.538 111.615 141.48C111.511 141.422 111.425 141.347 111.359 141.253C111.296 141.157 111.264 141.031 111.264 140.877C111.264 140.734 111.301 140.603 111.376 140.485C111.453 140.364 111.57 140.267 111.727 140.196C111.884 140.121 112.085 140.084 112.33 140.084C112.492 140.084 112.653 140.108 112.813 140.154C112.973 140.198 113.11 140.26 113.226 140.34L113.123 140.584C112.999 140.501 112.867 140.441 112.726 140.402C112.589 140.364 112.455 140.344 112.326 140.344C112.152 140.344 112.009 140.368 111.896 140.415C111.783 140.461 111.699 140.525 111.644 140.605C111.592 140.682 111.566 140.77 111.566 140.869C111.566 140.982 111.597 141.073 111.661 141.141C111.727 141.21 111.812 141.264 111.917 141.303C112.024 141.341 112.141 141.376 112.268 141.406C112.395 141.436 112.52 141.469 112.644 141.505C112.77 141.541 112.886 141.588 112.991 141.645C113.098 141.7 113.183 141.775 113.247 141.868C113.313 141.962 113.346 142.085 113.346 142.236C113.346 142.376 113.307 142.507 113.23 142.628C113.153 142.747 113.035 142.843 112.875 142.917C112.718 142.989 112.516 143.025 112.268 143.025ZM114.012 143V140.109H114.317V143H114.012ZM115.258 143V140.109H115.51L117.505 142.62H117.373V140.109H117.674V143H117.422L115.431 140.489H115.564V143H115.258ZM119.886 143.025C119.665 143.025 119.462 142.989 119.274 142.917C119.09 142.843 118.929 142.74 118.791 142.608C118.656 142.475 118.55 142.32 118.473 142.141C118.399 141.962 118.362 141.767 118.362 141.554C118.362 141.342 118.399 141.147 118.473 140.968C118.55 140.789 118.658 140.634 118.795 140.501C118.933 140.369 119.094 140.267 119.278 140.196C119.466 140.121 119.669 140.084 119.89 140.084C120.11 140.084 120.311 140.119 120.493 140.187C120.677 140.256 120.834 140.361 120.963 140.501L120.774 140.695C120.652 140.574 120.519 140.488 120.373 140.435C120.227 140.383 120.07 140.357 119.902 140.357C119.723 140.357 119.558 140.387 119.406 140.448C119.258 140.505 119.127 140.589 119.014 140.7C118.904 140.807 118.817 140.934 118.754 141.08C118.693 141.223 118.663 141.381 118.663 141.554C118.663 141.725 118.693 141.884 118.754 142.029C118.817 142.175 118.904 142.303 119.014 142.414C119.127 142.521 119.258 142.605 119.406 142.665C119.558 142.723 119.722 142.752 119.898 142.752C120.063 142.752 120.219 142.727 120.365 142.678C120.513 142.628 120.65 142.544 120.774 142.426L120.947 142.657C120.809 142.778 120.648 142.871 120.464 142.934C120.279 142.994 120.087 143.025 119.886 143.025ZM120.654 142.62V141.554H120.947V142.657L120.654 142.62ZM124.058 143.025C123.689 143.025 123.398 142.919 123.186 142.707C122.974 142.495 122.868 142.181 122.868 141.765V140.109H123.174V141.753C123.174 142.094 123.251 142.346 123.405 142.509C123.559 142.671 123.777 142.752 124.058 142.752C124.341 142.752 124.56 142.671 124.714 142.509C124.868 142.346 124.945 142.094 124.945 141.753V140.109H125.243V141.765C125.243 142.181 125.137 142.495 124.925 142.707C124.716 142.919 124.426 143.025 124.058 143.025ZM126.164 143V140.109H127.246C127.491 140.109 127.702 140.149 127.878 140.229C128.054 140.306 128.189 140.419 128.282 140.567C128.379 140.713 128.427 140.891 128.427 141.1C128.427 141.304 128.379 141.48 128.282 141.629C128.189 141.775 128.054 141.888 127.878 141.967C127.702 142.047 127.491 142.087 127.246 142.087H126.333L126.469 141.943V143H126.164ZM126.469 141.967L126.333 141.819H127.238C127.527 141.819 127.746 141.757 127.894 141.633C128.046 141.506 128.121 141.329 128.121 141.1C128.121 140.869 128.046 140.69 127.894 140.563C127.746 140.437 127.527 140.373 127.238 140.373H126.333L126.469 140.229V141.967Z" fill="white"/>
<path d="M108.791 72.0941L97.4746 72.0427L97.4652 74.1195L108.782 74.1709L108.791 72.0941Z" fill="#FF6A00"/>
<path opacity="0.1" d="M108.791 72.0941L97.4746 72.0427L97.4652 74.1195L108.782 74.1709L108.791 72.0941Z" fill="black"/>
<path d="M141.967 84.8451C142.055 84.8362 142.143 84.8154 142.226 84.7835C142.348 84.7359 142.454 84.6549 142.532 84.5499C142.609 84.4448 142.656 84.3199 142.666 84.1895C142.666 83.4899 142.666 82.4691 142.666 81.1579C142.666 80.5023 142.666 79.7675 142.666 78.9579C142.666 78.7599 142.666 78.5531 142.666 78.3463C142.695 78.1457 142.651 77.9414 142.543 77.7699C142.482 77.6878 142.404 77.6207 142.313 77.5742C142.222 77.5276 142.121 77.5027 142.019 77.5015H141.333H134.975L98.1734 77.3651C98.0792 77.3635 97.986 77.3847 97.9017 77.4268C97.8174 77.469 97.7446 77.5308 97.6894 77.6071C97.5831 77.7793 97.5425 77.9839 97.575 78.1835C97.575 78.6235 97.575 79.0635 97.575 79.5035C97.575 80.3835 97.575 81.2635 97.575 82.1435C97.575 82.5835 97.575 83.0235 97.575 83.4635C97.5567 83.6685 97.5567 83.8746 97.575 84.0795C97.5981 84.1674 97.641 84.2488 97.7005 84.3174C97.76 84.3861 97.8345 84.4402 97.9182 84.4755C98.0049 84.5101 98.0977 84.5265 98.191 84.5239H100.431L110.203 84.5767L126.747 84.6779L137.901 84.7659L140.933 84.8011H141.72C141.901 84.8011 141.989 84.8011 141.989 84.8011H141.72H140.933H137.901H126.747L110.203 84.7483L100.431 84.7087H98.191C98.0677 84.7137 97.9448 84.6927 97.8302 84.6471C97.7143 84.5977 97.6113 84.5225 97.5289 84.4271C97.4466 84.3318 97.3871 84.219 97.355 84.0971C97.3295 83.9817 97.3206 83.8631 97.3286 83.7451V83.4195C97.3286 82.9795 97.3286 82.5395 97.3286 82.0995C97.3286 81.2195 97.3286 80.3395 97.3286 79.4595C97.3286 79.0195 97.3286 78.5795 97.3286 78.1395C97.3202 78.0224 97.3202 77.9047 97.3286 77.7875C97.345 77.6581 97.3951 77.5352 97.4738 77.4311C97.5497 77.3249 97.6501 77.2387 97.7666 77.1797C97.883 77.1207 98.012 77.0907 98.1426 77.0923L134.944 77.2947L141.302 77.3387H141.989C142.109 77.3388 142.229 77.3681 142.336 77.424C142.443 77.4799 142.535 77.5608 142.605 77.6599C142.729 77.8512 142.779 78.0812 142.745 78.3067C142.745 78.5135 142.745 78.7203 142.745 78.9183C142.745 79.7191 142.745 80.4539 142.745 81.1183C142.745 82.4383 142.715 83.4503 142.706 84.1543C142.695 84.2897 142.646 84.4192 142.564 84.5275C142.482 84.6359 142.371 84.7186 142.244 84.7659C142.16 84.8175 142.065 84.845 141.967 84.8451Z" fill="#E0E0E0"/>
<path d="M121.573 79.574H100.875V81.5144H121.573V79.574Z" fill="#FF6A00"/>
<path opacity="0.2" d="M121.573 79.574H100.875V81.5144H121.573V79.574Z" fill="white"/>
<path d="M108.715 91.0399L97.3984 90.9885L97.389 93.0653L108.706 93.1167L108.715 91.0399Z" fill="#FF6A00"/>
<path opacity="0.1" d="M108.715 91.0399L97.3984 90.9885L97.389 93.0653L108.706 93.1167L108.715 91.0399Z" fill="black"/>
<path d="M141.681 103.792C141.77 103.781 141.858 103.764 141.945 103.743C142.068 103.704 142.181 103.639 142.276 103.553C142.372 103.466 142.448 103.36 142.499 103.242C142.569 103.064 142.596 102.873 142.578 102.683C142.578 102.472 142.578 102.243 142.578 101.988C142.578 101.477 142.578 100.896 142.578 100.228V97.4336C142.599 97.2313 142.555 97.0276 142.451 96.8528C142.342 96.6734 142.172 96.5403 141.971 96.4788C141.752 96.4396 141.529 96.4278 141.307 96.4436H134.975L98.3012 96.3072C98.104 96.3076 97.9136 96.3797 97.7655 96.51C97.6174 96.6403 97.5216 96.82 97.496 97.0156C97.496 97.4336 97.496 97.8956 97.496 98.3356C97.496 99.2156 97.496 100.096 97.496 100.976C97.496 101.416 97.496 101.856 97.496 102.296C97.4797 102.501 97.4885 102.708 97.5224 102.912C97.5774 103.09 97.6905 103.245 97.8436 103.352C98.0062 103.455 98.1971 103.504 98.3892 103.492H99.0008H100.272L110.01 103.541L126.496 103.642L137.611 103.73L140.634 103.765H137.611H126.496L110.001 103.748L100.264 103.712H98.3496C98.1117 103.726 97.8755 103.663 97.6764 103.532C97.4762 103.393 97.3301 103.19 97.2628 102.956C97.2234 102.732 97.2116 102.504 97.2276 102.278C97.2276 101.838 97.2276 101.398 97.2276 100.958C97.2276 100.078 97.2276 99.198 97.2276 98.318C97.2276 97.878 97.2276 97.438 97.2276 96.998C97.2598 96.7464 97.3825 96.5151 97.5728 96.3474C97.7631 96.1798 98.008 96.0873 98.2616 96.0872L134.936 96.2896L141.267 96.338C141.503 96.3235 141.74 96.3398 141.971 96.3864C142.2 96.461 142.393 96.6178 142.512 96.8264C142.626 97.0202 142.676 97.2451 142.653 97.4688C142.653 97.6756 142.653 97.878 142.653 98.0804C142.653 98.8768 142.653 99.6072 142.653 100.28C142.653 100.954 142.653 101.521 142.653 102.04C142.653 102.291 142.653 102.524 142.653 102.74C142.669 102.937 142.638 103.134 142.561 103.316C142.504 103.438 142.421 103.545 142.319 103.632C142.216 103.719 142.096 103.782 141.967 103.818C141.871 103.826 141.774 103.817 141.681 103.792Z" fill="#E0E0E0"/>
<path d="M108.629 110.808L97.3125 110.757L97.3031 112.834L108.62 112.885L108.629 110.808Z" fill="#FF6A00"/>
<path opacity="0.1" d="M108.629 110.808L97.3125 110.757L97.3031 112.834L108.62 112.885L108.629 110.808Z" fill="black"/>
<path d="M141.592 123.552C141.681 123.541 141.77 123.525 141.856 123.503C141.979 123.465 142.091 123.4 142.187 123.314C142.283 123.229 142.359 123.124 142.411 123.006C142.48 122.829 142.507 122.637 142.49 122.447C142.49 122.232 142.49 122.007 142.49 121.748C142.49 121.242 142.49 120.657 142.49 119.988V117.194C142.511 116.992 142.466 116.788 142.362 116.613C142.251 116.437 142.081 116.306 141.883 116.243C141.664 116.203 141.441 116.19 141.218 116.204H134.887L98.2128 116.067C98.0156 116.068 97.8252 116.14 97.6771 116.27C97.529 116.401 97.4332 116.58 97.4076 116.776C97.4076 117.216 97.4076 117.656 97.4076 118.096C97.4076 118.976 97.4076 119.856 97.4076 120.736C97.4076 121.176 97.4076 121.616 97.4076 122.056C97.3912 122.26 97.4001 122.465 97.434 122.667C97.4867 122.847 97.6003 123.003 97.7552 123.107C97.9167 123.213 98.1084 123.262 98.3008 123.248H100.215L109.952 123.301L126.439 123.402L137.553 123.49L140.576 123.525H137.553H126.439L109.952 123.477L100.215 123.437H98.3008C98.0626 123.454 97.8259 123.39 97.6276 123.257C97.4274 123.118 97.2813 122.915 97.214 122.681C97.1746 122.457 97.1628 122.23 97.1788 122.003C97.1788 121.563 97.1788 121.123 97.1788 120.683C97.1788 119.803 97.1788 118.923 97.1788 118.043C97.1788 117.603 97.1788 117.163 97.1788 116.701C97.2099 116.45 97.3317 116.219 97.5213 116.051C97.7109 115.883 97.9553 115.791 98.2084 115.79L134.882 115.993L141.214 116.041C141.45 116.027 141.686 116.043 141.918 116.089C142.147 116.164 142.339 116.321 142.459 116.529C142.573 116.723 142.622 116.948 142.6 117.172C142.6 117.379 142.6 117.585 142.6 117.783C142.6 118.58 142.6 119.31 142.6 119.983C142.6 120.657 142.6 121.224 142.6 121.743C142.6 121.994 142.6 122.227 142.6 122.443C142.617 122.64 142.585 122.838 142.508 123.019C142.451 123.141 142.368 123.249 142.265 123.335C142.163 123.422 142.043 123.485 141.914 123.521C141.81 123.556 141.7 123.567 141.592 123.552Z" fill="#E0E0E0"/>
<path d="M121.131 99.069L100.434 98.9751L100.425 100.915L121.122 101.009L121.131 99.069Z" fill="#FF6A00"/>
<path opacity="0.2" d="M121.131 99.069L100.434 98.9751L100.425 100.915L121.122 101.009L121.131 99.069Z" fill="white"/>
<path d="M102.305 119.961C102.292 120.138 102.227 120.308 102.119 120.448C102.01 120.589 101.863 120.695 101.695 120.752C101.527 120.81 101.346 120.817 101.175 120.773C101.003 120.729 100.848 120.635 100.728 120.503C100.609 120.372 100.532 120.208 100.505 120.033C100.478 119.857 100.503 119.678 100.577 119.517C100.651 119.355 100.771 119.219 100.922 119.126C101.072 119.032 101.247 118.984 101.425 118.989C101.67 119.003 101.9 119.113 102.064 119.295C102.229 119.477 102.315 119.716 102.305 119.961Z" fill="#FF6A00"/>
<path d="M105.107 119.975C105.116 120.099 105.099 120.223 105.058 120.34C105.016 120.458 104.951 120.565 104.866 120.656C104.781 120.747 104.679 120.819 104.565 120.869C104.451 120.919 104.328 120.944 104.203 120.944C104.079 120.944 103.956 120.919 103.842 120.869C103.728 120.819 103.625 120.747 103.54 120.656C103.456 120.565 103.39 120.458 103.349 120.34C103.307 120.223 103.29 120.099 103.299 119.975C103.29 119.851 103.307 119.726 103.349 119.609C103.39 119.492 103.456 119.384 103.54 119.293C103.625 119.202 103.728 119.13 103.842 119.08C103.956 119.031 104.079 119.005 104.203 119.005C104.328 119.005 104.451 119.031 104.565 119.08C104.679 119.13 104.781 119.202 104.866 119.293C104.951 119.384 105.016 119.492 105.058 119.609C105.099 119.726 105.116 119.851 105.107 119.975Z" fill="#FF6A00"/>
<path d="M107.914 119.988C107.901 120.165 107.836 120.334 107.728 120.475C107.62 120.615 107.472 120.721 107.305 120.779C107.137 120.836 106.956 120.844 106.784 120.799C106.612 120.755 106.457 120.661 106.338 120.53C106.219 120.398 106.141 120.235 106.114 120.059C106.087 119.884 106.112 119.704 106.186 119.543C106.26 119.382 106.38 119.246 106.531 119.152C106.682 119.058 106.856 119.011 107.034 119.015C107.279 119.03 107.508 119.14 107.672 119.322C107.837 119.504 107.924 119.743 107.914 119.988Z" fill="#FF6A00"/>
<path d="M110.717 120.001C110.704 120.178 110.639 120.347 110.531 120.488C110.422 120.628 110.275 120.734 110.107 120.792C109.94 120.85 109.758 120.857 109.587 120.812C109.415 120.768 109.26 120.675 109.141 120.543C109.022 120.411 108.944 120.248 108.917 120.072C108.89 119.897 108.915 119.717 108.989 119.556C109.063 119.395 109.183 119.259 109.334 119.165C109.484 119.071 109.659 119.024 109.837 119.029C110.081 119.043 110.311 119.153 110.475 119.335C110.64 119.517 110.726 119.756 110.717 120.001Z" fill="#FF6A00"/>
<path d="M113.52 120.01C113.508 120.187 113.444 120.357 113.336 120.498C113.228 120.639 113.081 120.746 112.913 120.804C112.745 120.862 112.564 120.87 112.392 120.826C112.22 120.783 112.064 120.689 111.945 120.558C111.825 120.426 111.747 120.262 111.72 120.087C111.692 119.911 111.717 119.732 111.791 119.57C111.866 119.409 111.985 119.272 112.136 119.179C112.287 119.085 112.462 119.037 112.64 119.042C112.884 119.057 113.112 119.166 113.277 119.347C113.441 119.528 113.528 119.766 113.52 120.01Z" fill="#FF6A00"/>
<path d="M116.326 120.023C116.314 120.2 116.251 120.368 116.144 120.509C116.037 120.65 115.892 120.757 115.725 120.816C115.559 120.875 115.378 120.884 115.207 120.842C115.035 120.8 114.879 120.709 114.759 120.579C114.638 120.45 114.558 120.288 114.529 120.114C114.499 119.94 114.521 119.761 114.591 119.599C114.662 119.437 114.779 119.299 114.927 119.203C115.075 119.106 115.248 119.055 115.424 119.055C115.672 119.064 115.906 119.171 116.075 119.353C116.244 119.534 116.335 119.775 116.326 120.023Z" fill="#FF6A00"/>
<path d="M119.131 120.036C119.14 120.16 119.123 120.285 119.081 120.402C119.04 120.519 118.974 120.627 118.89 120.718C118.805 120.809 118.702 120.881 118.588 120.931C118.474 120.98 118.351 121.006 118.227 121.006C118.102 121.006 117.979 120.98 117.865 120.931C117.751 120.881 117.649 120.809 117.564 120.718C117.479 120.627 117.414 120.519 117.372 120.402C117.331 120.285 117.314 120.16 117.323 120.036C117.314 119.912 117.331 119.788 117.372 119.671C117.414 119.553 117.479 119.446 117.564 119.355C117.649 119.264 117.751 119.192 117.865 119.142C117.979 119.092 118.102 119.067 118.227 119.067C118.351 119.067 118.474 119.092 118.588 119.142C118.702 119.192 118.805 119.264 118.89 119.355C118.974 119.446 119.04 119.553 119.081 119.671C119.123 119.788 119.14 119.912 119.131 120.036Z" fill="#FF6A00"/>
<path d="M121.934 120.05C121.922 120.226 121.858 120.395 121.752 120.536C121.645 120.676 121.499 120.783 121.333 120.842C121.166 120.901 120.986 120.91 120.814 120.868C120.642 120.826 120.487 120.735 120.366 120.606C120.246 120.477 120.166 120.315 120.136 120.141C120.106 119.966 120.128 119.787 120.199 119.625C120.269 119.463 120.386 119.326 120.534 119.229C120.682 119.132 120.855 119.081 121.032 119.082C121.28 119.091 121.514 119.198 121.683 119.379C121.852 119.561 121.942 119.802 121.934 120.05Z" fill="#FF6A00"/>
<path d="M124.736 120.063C124.724 120.24 124.66 120.41 124.553 120.551C124.445 120.692 124.298 120.799 124.13 120.857C123.962 120.915 123.781 120.923 123.609 120.879C123.437 120.835 123.281 120.742 123.161 120.611C123.042 120.479 122.964 120.315 122.937 120.14C122.909 119.964 122.934 119.785 123.008 119.623C123.082 119.462 123.202 119.325 123.353 119.232C123.504 119.138 123.679 119.09 123.856 119.095C124.1 119.11 124.329 119.219 124.493 119.4C124.658 119.581 124.745 119.819 124.736 120.063Z" fill="#FF6A00"/>
<g opacity="0.2">
<path d="M102.305 119.961C102.292 120.138 102.227 120.308 102.119 120.448C102.01 120.589 101.863 120.695 101.695 120.752C101.527 120.81 101.346 120.817 101.175 120.773C101.003 120.729 100.848 120.635 100.728 120.503C100.609 120.372 100.532 120.208 100.505 120.033C100.478 119.857 100.503 119.678 100.577 119.517C100.651 119.355 100.771 119.219 100.922 119.126C101.072 119.032 101.247 118.984 101.425 118.989C101.67 119.003 101.9 119.113 102.064 119.295C102.229 119.477 102.315 119.716 102.305 119.961Z" fill="white"/>
<path d="M105.107 119.975C105.116 120.099 105.099 120.223 105.058 120.34C105.016 120.458 104.951 120.565 104.866 120.656C104.781 120.747 104.679 120.819 104.565 120.869C104.451 120.919 104.328 120.944 104.203 120.944C104.079 120.944 103.956 120.919 103.842 120.869C103.728 120.819 103.625 120.747 103.54 120.656C103.456 120.565 103.39 120.458 103.349 120.34C103.307 120.223 103.29 120.099 103.299 119.975C103.29 119.851 103.307 119.726 103.349 119.609C103.39 119.492 103.456 119.384 103.54 119.293C103.625 119.202 103.728 119.13 103.842 119.08C103.956 119.031 104.079 119.005 104.203 119.005C104.328 119.005 104.451 119.031 104.565 119.08C104.679 119.13 104.781 119.202 104.866 119.293C104.951 119.384 105.016 119.492 105.058 119.609C105.099 119.726 105.116 119.851 105.107 119.975Z" fill="white"/>
<path d="M107.914 119.988C107.901 120.165 107.836 120.334 107.728 120.475C107.62 120.615 107.472 120.721 107.305 120.779C107.137 120.836 106.956 120.844 106.784 120.799C106.612 120.755 106.457 120.661 106.338 120.53C106.219 120.398 106.141 120.235 106.114 120.059C106.087 119.884 106.112 119.704 106.186 119.543C106.26 119.382 106.38 119.246 106.531 119.152C106.682 119.058 106.856 119.011 107.034 119.015C107.279 119.03 107.508 119.14 107.672 119.322C107.837 119.504 107.924 119.743 107.914 119.988Z" fill="white"/>
<path d="M110.717 120.001C110.704 120.178 110.639 120.347 110.531 120.488C110.422 120.628 110.275 120.734 110.107 120.792C109.94 120.85 109.758 120.857 109.587 120.812C109.415 120.768 109.26 120.675 109.141 120.543C109.022 120.411 108.944 120.248 108.917 120.072C108.89 119.897 108.915 119.717 108.989 119.556C109.063 119.395 109.183 119.259 109.334 119.165C109.484 119.071 109.659 119.024 109.837 119.029C110.081 119.043 110.311 119.153 110.475 119.335C110.64 119.517 110.726 119.756 110.717 120.001Z" fill="white"/>
<path d="M113.52 120.01C113.508 120.187 113.444 120.357 113.336 120.498C113.228 120.639 113.081 120.746 112.913 120.804C112.745 120.862 112.564 120.87 112.392 120.826C112.22 120.783 112.064 120.689 111.945 120.558C111.825 120.426 111.747 120.262 111.72 120.087C111.692 119.911 111.717 119.732 111.791 119.57C111.866 119.409 111.985 119.272 112.136 119.179C112.287 119.085 112.462 119.037 112.64 119.042C112.884 119.057 113.112 119.166 113.277 119.347C113.441 119.528 113.528 119.766 113.52 120.01Z" fill="white"/>
<path d="M116.328 120.023C116.316 120.2 116.253 120.368 116.146 120.509C116.039 120.65 115.894 120.757 115.727 120.816C115.561 120.875 115.38 120.884 115.209 120.842C115.037 120.8 114.881 120.709 114.761 120.579C114.64 120.45 114.56 120.288 114.531 120.114C114.501 119.94 114.523 119.761 114.593 119.599C114.664 119.437 114.781 119.299 114.929 119.203C115.077 119.106 115.25 119.055 115.426 119.055C115.674 119.064 115.908 119.171 116.077 119.353C116.246 119.534 116.337 119.775 116.328 120.023Z" fill="white"/>
<path d="M119.131 120.036C119.14 120.16 119.123 120.285 119.081 120.402C119.04 120.519 118.974 120.627 118.89 120.718C118.805 120.809 118.702 120.881 118.588 120.931C118.474 120.98 118.351 121.006 118.227 121.006C118.102 121.006 117.979 120.98 117.865 120.931C117.751 120.881 117.649 120.809 117.564 120.718C117.479 120.627 117.414 120.519 117.372 120.402C117.331 120.285 117.314 120.16 117.323 120.036C117.314 119.912 117.331 119.788 117.372 119.671C117.414 119.553 117.479 119.446 117.564 119.355C117.649 119.264 117.751 119.192 117.865 119.142C117.979 119.092 118.102 119.067 118.227 119.067C118.351 119.067 118.474 119.092 118.588 119.142C118.702 119.192 118.805 119.264 118.89 119.355C118.974 119.446 119.04 119.553 119.081 119.671C119.123 119.788 119.14 119.912 119.131 120.036Z" fill="white"/>
<path d="M121.934 120.05C121.922 120.226 121.858 120.395 121.752 120.536C121.645 120.676 121.499 120.783 121.333 120.842C121.166 120.901 120.986 120.91 120.814 120.868C120.642 120.826 120.487 120.735 120.366 120.606C120.246 120.477 120.166 120.315 120.136 120.141C120.106 119.966 120.128 119.787 120.199 119.625C120.269 119.463 120.386 119.326 120.534 119.229C120.682 119.132 120.855 119.081 121.032 119.082C121.28 119.091 121.514 119.198 121.683 119.379C121.852 119.561 121.942 119.802 121.934 120.05Z" fill="white"/>
<path d="M124.736 120.063C124.724 120.24 124.66 120.41 124.553 120.551C124.445 120.692 124.298 120.799 124.13 120.857C123.962 120.915 123.781 120.923 123.609 120.879C123.437 120.835 123.281 120.742 123.161 120.611C123.042 120.479 122.964 120.315 122.937 120.14C122.909 119.964 122.934 119.785 123.008 119.623C123.082 119.462 123.202 119.325 123.353 119.232C123.504 119.138 123.679 119.09 123.856 119.095C124.1 119.11 124.329 119.219 124.493 119.4C124.658 119.581 124.745 119.819 124.736 120.063Z" fill="white"/>
</g>
<path d="M120.755 56.5444C121.06 56.4098 121.32 56.1883 121.5 55.9074C121.681 55.6266 121.775 55.2988 121.771 54.9648C121.782 54.7477 121.749 54.5306 121.674 54.3266C121.599 54.1227 121.483 53.9362 121.333 53.7785C121.184 53.6208 121.004 53.4952 120.804 53.4094C120.604 53.3236 120.389 53.2793 120.172 53.2793C119.954 53.2793 119.739 53.3236 119.539 53.4094C119.34 53.4952 119.159 53.6208 119.01 53.7785C118.86 53.9362 118.744 54.1227 118.669 54.3266C118.594 54.5306 118.561 54.7477 118.572 54.9648C118.566 55.3021 118.659 55.6338 118.841 55.9181C119.022 56.2024 119.284 56.4264 119.593 56.562C117.129 56.9316 117.239 59.6068 117.239 59.6068L123.065 59.6332C123.065 59.6332 123.201 56.9096 120.755 56.5444Z" fill="#FF6A00"/>
<path opacity="0.1" d="M120.755 56.5444C121.06 56.4098 121.32 56.1883 121.5 55.9074C121.681 55.6266 121.775 55.2988 121.771 54.9648C121.782 54.7477 121.749 54.5306 121.674 54.3266C121.599 54.1227 121.483 53.9362 121.333 53.7785C121.184 53.6208 121.004 53.4952 120.804 53.4094C120.604 53.3236 120.389 53.2793 120.172 53.2793C119.954 53.2793 119.739 53.3236 119.539 53.4094C119.34 53.4952 119.159 53.6208 119.01 53.7785C118.86 53.9362 118.744 54.1227 118.669 54.3266C118.594 54.5306 118.561 54.7477 118.572 54.9648C118.566 55.3021 118.659 55.6338 118.841 55.9181C119.022 56.2024 119.284 56.4264 119.593 56.562C117.129 56.9316 117.239 59.6068 117.239 59.6068L123.065 59.6332C123.065 59.6332 123.201 56.9096 120.755 56.5444Z" fill="black"/>
<path d="M130.22 61.3586L109.457 61.2644L109.446 63.746L130.209 63.8402L130.22 61.3586Z" fill="#FF6A00"/>
<path opacity="0.2" d="M130.22 61.3586L109.457 61.2644L109.446 63.746L130.209 63.8402L130.22 61.3586Z" fill="white"/>
<path d="M53.8874 74.2193H53.6806L53.0822 74.2633C52.7584 74.2827 52.4363 74.3254 52.1186 74.3909C51.9128 74.4198 51.7087 74.4594 51.507 74.5097L50.825 74.6989C49.6642 75.055 48.569 75.5974 47.5822 76.3049C46.2784 77.2512 45.1898 78.4628 44.3878 79.8601C43.9164 80.6655 43.5413 81.5235 43.2702 82.4165C42.9853 83.387 42.8213 84.389 42.7818 85.3997C42.7556 85.9306 42.7644 86.4627 42.8082 86.9925C42.8082 87.2609 42.883 87.5293 42.9182 87.8021C42.9478 88.0771 42.9993 88.3493 43.0722 88.6161C43.4679 90.3817 44.2707 92.0304 45.4166 93.4307C46.5625 94.831 48.0198 95.9441 49.6722 96.6813C50.8682 97.1973 52.15 97.4853 53.4518 97.5305C54.7963 97.6044 56.1422 97.4115 57.4118 96.9629L57.799 96.8177H57.8518L57.8958 96.8441L63.4442 99.6601L63.2814 99.8009C62.6874 97.9617 62.1154 96.1797 61.561 94.4681V94.4021L61.6094 94.3537C62.9554 92.998 63.9545 91.3377 64.5222 89.5137C65.0364 87.8461 65.1864 86.0875 64.9622 84.3569C64.7628 82.8189 64.2683 81.3338 63.5058 79.9833C62.8486 78.8231 62.0007 77.7819 60.9978 76.9033C60.1704 76.2078 59.2546 75.6249 58.2742 75.1697C57.5324 74.8497 56.7599 74.6065 55.9686 74.4437L55.0886 74.2985L54.4506 74.2501L54.0634 74.2237H53.9314C53.9753 74.2188 54.0195 74.2188 54.0634 74.2237H54.455L55.093 74.2501L55.973 74.3777C56.7741 74.5286 57.5572 74.763 58.3094 75.0773C59.3066 75.5271 60.2389 76.1087 61.0814 76.8065C62.1028 77.6812 62.9686 78.7226 63.6422 79.8865C64.4263 81.2515 64.936 82.7567 65.1426 84.3173C65.3854 86.0746 65.2458 87.8637 64.7334 89.5621C64.162 91.4241 63.1474 93.1196 61.7766 94.5033L61.803 94.3889C62.3574 96.1005 62.9338 97.8825 63.5322 99.7173L63.6158 99.9857L63.365 99.8581L57.8166 97.0465H57.9134L57.5174 97.1917C56.2233 97.647 54.8526 97.8444 53.4826 97.7725C52.1528 97.7218 50.8441 97.4234 49.6238 96.8925C47.2961 95.8956 45.3594 94.1629 44.1106 91.9601C43.5359 90.9427 43.1162 89.8453 42.8654 88.7041C42.7967 88.4304 42.7453 88.1526 42.7114 87.8725C42.6762 87.5953 42.619 87.3225 42.6058 87.0497C42.4867 85.4841 42.6522 83.9099 43.0942 82.4033C43.3721 81.498 43.7577 80.6294 44.2426 79.8161C45.0637 78.4061 46.175 77.1868 47.503 76.2389C48.506 75.5296 49.6197 74.9914 50.7986 74.6461L51.4894 74.4701C51.6927 74.4229 51.8983 74.3862 52.1054 74.3601C52.4264 74.3006 52.7515 74.2653 53.0778 74.2545L53.6806 74.2325C53.7491 74.2232 53.8183 74.2188 53.8874 74.2193Z" fill="#FF6A00"/>
<path d="M56.3961 84.4801H55.5821L53.8221 82.0073V80.3837C53.8221 80.3837 52.5637 80.3045 52.7133 82.4297C52.8629 84.5549 52.7133 84.0137 52.7133 84.0137C52.7133 84.0137 50.0425 84.0137 49.8225 84.2557C49.6025 84.4977 49.5893 87.0761 49.5585 88.5149C49.5416 88.8617 49.6411 89.2043 49.8412 89.4881C50.0413 89.7719 50.3305 89.9807 50.6629 90.0813C50.756 90.1071 50.8522 90.1204 50.9489 90.1209C51.6177 90.1209 55.0189 89.5797 55.0189 89.5797H56.4225L56.3961 84.4801Z" fill="#FF6A00"/>
<path d="M58.7221 84.0444L58.2205 89.606H56.8301V84.1588L58.7221 84.0444Z" fill="#FF6A00"/>
<path d="M75.3063 197.27V193.508L68.5611 193.459L68.5039 199.148L68.9219 199.179C70.7831 199.298 78.3907 199.474 79.6403 199.087C81.0307 198.656 75.3063 197.27 75.3063 197.27Z" fill="#FF6A00"/>
<path d="M79.7982 198.735C79.7982 198.796 77.2726 198.849 74.1618 198.849C71.051 198.849 68.5254 198.796 68.5254 198.735C68.5254 198.673 71.051 198.62 74.1618 198.62C77.2726 198.62 79.7982 198.673 79.7982 198.735Z" fill="#263238"/>
<path d="M75.4244 198.04C75.3672 198.009 75.4244 197.811 75.5608 197.6C75.6972 197.389 75.882 197.301 75.926 197.345C75.97 197.389 75.8776 197.556 75.7456 197.736C75.6136 197.917 75.4816 198.071 75.4244 198.04Z" fill="#263238"/>
<path d="M75.8567 198.286C75.7951 198.286 75.8259 198.04 75.9579 197.807C76.0899 197.573 76.2659 197.433 76.3143 197.468C76.3627 197.503 76.2835 197.701 76.1603 197.908C76.0371 198.115 75.9139 198.308 75.8567 198.286Z" fill="#263238"/>
<path d="M70.559 198.717C70.5326 198.717 70.4314 198.638 70.2862 198.471C70.109 198.256 69.9115 198.059 69.6966 197.881C69.4853 197.712 69.2335 197.602 68.9662 197.56C68.7594 197.534 68.6274 197.56 68.6142 197.534C68.601 197.507 68.7286 197.415 68.9706 197.397C69.29 197.391 69.6015 197.496 69.8506 197.696C70.084 197.887 70.2808 198.118 70.4314 198.378C70.5326 198.572 70.5854 198.7 70.559 198.717Z" fill="#263238"/>
<path d="M75.4465 197.331C75.4773 197.384 75.3629 197.516 75.1693 197.587C74.9757 197.657 74.8041 197.631 74.7953 197.587C74.7865 197.543 74.9229 197.45 75.0901 197.389C75.2573 197.327 75.4113 197.279 75.4465 197.331Z" fill="#263238"/>
<path d="M75.3409 196.966C75.3409 197.032 75.1649 197.085 74.9361 197.089C74.7073 197.094 74.5269 197.041 74.5313 196.979C74.5357 196.918 74.7161 196.861 74.9361 196.856C75.1561 196.852 75.3321 196.905 75.3409 196.966Z" fill="#263238"/>
<path d="M91.9157 197.27V193.508L85.1705 193.459L85.1133 199.091L85.5313 199.122C87.3925 199.241 95.0045 199.474 96.2497 199.087C97.6401 198.656 91.9157 197.27 91.9157 197.27Z" fill="#FF6A00"/>
<path d="M96.409 198.744C96.409 198.805 93.8878 198.858 90.7726 198.858C87.6574 198.858 85.1406 198.805 85.1406 198.744C85.1406 198.682 87.6618 198.629 90.7726 198.629C93.8834 198.629 96.409 198.682 96.409 198.744Z" fill="#263238"/>
<path d="M92.0358 198.04C91.983 198.009 92.0358 197.811 92.1722 197.6C92.3086 197.389 92.4934 197.301 92.5374 197.345C92.5814 197.389 92.489 197.556 92.357 197.736C92.225 197.917 92.093 198.071 92.0358 198.04Z" fill="#263238"/>
<path d="M92.4659 198.286C92.4087 198.286 92.4351 198.04 92.5715 197.807C92.7079 197.573 92.8795 197.433 92.9279 197.468C92.9763 197.503 92.8927 197.701 92.7695 197.908C92.6463 198.115 92.5275 198.308 92.4659 198.286Z" fill="#263238"/>
<path d="M87.1684 198.717C87.142 198.717 87.0452 198.638 86.8956 198.471C86.7183 198.256 86.5209 198.059 86.306 197.881C86.0946 197.712 85.8429 197.602 85.5756 197.56C85.3732 197.534 85.2368 197.56 85.2236 197.534C85.2104 197.507 85.338 197.415 85.58 197.397C85.8994 197.391 86.2109 197.496 86.46 197.696C86.6946 197.885 86.8916 198.117 87.0408 198.378C87.142 198.572 87.1948 198.7 87.1684 198.717Z" fill="#263238"/>
<path d="M92.0579 197.331C92.0887 197.384 91.9742 197.516 91.7806 197.587C91.587 197.657 91.4155 197.631 91.4067 197.587C91.3979 197.543 91.5343 197.45 91.7015 197.389C91.8687 197.327 92.0227 197.279 92.0579 197.331Z" fill="#263238"/>
<path d="M91.9596 196.966C91.9596 197.032 91.7836 197.085 91.5548 197.089C91.326 197.094 91.15 197.041 91.1544 196.979C91.1588 196.918 91.3348 196.861 91.5548 196.856C91.7748 196.852 91.9596 196.905 91.9596 196.966Z" fill="#263238"/>
<path d="M116.768 85.5538C116.592 85.3734 116.156 85.4614 116.156 85.4614C116.2 85.208 116.2 84.9491 116.156 84.6958C116.077 84.4494 115.522 84.4978 115.522 84.4978C115.497 84.2903 115.497 84.0804 115.522 83.873C115.527 83.827 115.517 83.7807 115.494 83.7406C115.471 83.7004 115.437 83.6683 115.395 83.6486C115.133 83.5416 114.851 83.4906 114.568 83.499C114.229 83.257 115.602 81.3342 116.112 80.7182C116.622 80.1022 116.53 79.6226 116.077 79.6226C115.764 79.6226 114.163 81.4706 113.67 82.091C113.177 82.7114 111.87 84.4362 111.826 83.059C111.782 81.6818 111.228 80.6434 110.88 80.4674C110.533 80.2914 110.163 80.705 110.352 81.0878C110.519 81.5227 110.622 81.9789 110.66 82.443C110.708 82.8126 110.692 83.1877 110.612 83.5518C110.466 84.2292 110.268 84.8941 110.018 85.5406H109.983C109.983 85.5406 100.382 94.7498 99.6868 95.4054C99.0664 95.995 86.588 94.7058 84.0844 94.4418C83.2337 94.3173 82.3746 94.2584 81.5148 94.2658C80.428 94.3142 80.2344 94.4682 79.152 94.4814C76.4185 94.5117 73.6913 94.7515 70.9944 95.1986C69.7733 95.4062 68.6326 95.9452 67.6968 96.7568C66.7611 97.5684 66.0662 98.6214 65.688 99.801C63.1668 107.677 57.4556 126.32 56.448 136.792C55.6866 138.172 54.9992 139.593 54.3888 141.047C53.6804 142.974 53.852 143.04 54.0896 143.084C54.732 143.203 55.4624 139.744 55.7352 140.58C56.008 141.416 54.3492 144.703 55.0224 144.8C55.9024 144.923 56.602 141.28 56.6856 140.989C56.7692 140.699 57.2048 140.791 57.1256 141.064C56.998 141.451 55.7616 145.557 56.624 145.689C57.0992 145.759 57.152 144.892 57.152 144.892C57.152 144.892 58.032 140.963 58.4324 141.042C58.8328 141.121 58.406 143.44 58.2036 144.215C58.0012 144.989 58.2828 145.381 58.6964 145.191C58.978 145.059 59.6512 142.705 59.836 141.94C60.0208 141.174 60.4828 139.053 61.1032 140.281C61.7236 141.509 62.6652 142.221 63.0524 142.239C63.1397 142.229 63.2219 142.193 63.2886 142.136C63.3552 142.079 63.4032 142.003 63.4264 141.918C63.4496 141.833 63.4469 141.744 63.4187 141.66C63.3904 141.577 63.338 141.504 63.268 141.451C62.935 141.126 62.6491 140.756 62.4188 140.351C62.2136 140.036 62.0647 139.688 61.9788 139.322C61.8015 138.592 61.6983 137.846 61.6708 137.095L61.6004 136.655C62.586 131.776 65.424 117.454 69.5204 108.306L71.2012 111.765L71.9316 114.325L67.4524 125.383L86.5572 125.132L83.706 114.158L87.1688 102.718C90.9132 102.802 100.527 102.943 102.129 102.217C104.144 101.337 114.568 88.1718 114.568 88.1718C115.247 87.6438 115.898 87.0798 116.517 86.4822C116.517 86.4822 117.15 85.9498 116.768 85.5538Z" fill="#FFBE9D"/>
<path d="M66.6129 117.212C67.1673 115.32 70.0141 105.965 70.0141 105.965C70.0141 105.965 71.4133 113.591 71.0437 114.51C70.7037 115.297 70.302 116.057 69.8425 116.781C66.6129 121.695 67.0353 124.155 67.0353 124.155L86.5493 123.561C86.5933 120.833 84.9785 114.488 84.6441 113.476C84.3097 112.464 85.4229 109.151 85.4229 109.151C85.4229 109.151 87.6229 106.911 87.5437 105.759C87.5019 104.723 87.3738 103.693 87.1609 102.679L99.0409 103.119L98.6669 95.0666L81.6037 93.3594C81.0097 95.0358 75.6373 94.213 75.6373 94.213C69.8381 94.4066 69.4773 95.4714 67.0661 97.3458C64.6549 99.2202 60.6641 115.307 60.6641 115.307L66.6129 117.212Z" fill="#FF6A00"/>
<path d="M78.1498 115.307C77.8116 115.367 77.4672 115.385 77.1246 115.359C76.4866 115.359 75.611 115.315 74.6474 115.219C73.6838 115.122 72.8126 114.985 72.1922 114.862C71.8501 114.818 71.5147 114.732 71.1934 114.607C71.5374 114.607 71.8806 114.639 72.2186 114.704C72.8434 114.783 73.7102 114.893 74.6694 114.99C75.6286 115.087 76.4998 115.153 77.129 115.197C77.4719 115.201 77.8137 115.238 78.1498 115.307Z" fill="#263238"/>
<path d="M79.4855 113.648C79.1472 113.813 78.7895 113.936 78.4207 114.013C76.6652 114.474 74.8541 114.689 73.0395 114.651C72.664 114.663 72.2884 114.628 71.9219 114.545C72.2925 114.498 72.666 114.479 73.0395 114.488C73.7303 114.466 74.6807 114.418 75.7279 114.295C76.7751 114.171 77.7079 113.995 78.3679 113.855C78.7345 113.757 79.1081 113.687 79.4855 113.648Z" fill="#263238"/>
<path d="M86.0518 106.247C86.0429 106.582 85.9972 106.916 85.9154 107.241C85.801 107.853 85.625 108.689 85.4006 109.604C85.1762 110.519 84.9606 111.364 84.767 111.936C84.6892 112.263 84.574 112.581 84.4238 112.882C84.4483 112.548 84.5103 112.217 84.6086 111.896C84.7758 111.21 84.965 110.418 85.1762 109.551C85.3874 108.684 85.5898 107.892 85.757 107.206C85.8166 106.876 85.9156 106.554 86.0518 106.247Z" fill="#263238"/>
<path d="M66.8184 116.09C65.8005 115.932 64.7959 115.699 63.8132 115.39C62.8091 115.155 61.8237 114.846 60.8652 114.466C61.8827 114.626 62.8871 114.86 63.8704 115.166C64.8748 115.4 65.8602 115.708 66.8184 116.09Z" fill="#263238"/>
<path d="M87.3705 102.582C87.2046 102.61 87.0349 102.61 86.8689 102.582C86.4093 102.535 85.9581 102.427 85.5269 102.261C84.8072 101.99 84.1519 101.572 83.6033 101.033C83.0547 100.495 82.6248 99.847 82.3413 99.1322C82.028 98.3459 81.8942 97.4996 81.9497 96.655C81.9694 95.9583 82.1777 95.2801 82.5525 94.6926C82.8162 94.2968 83.21 94.0057 83.6657 93.8698C83.7875 93.8362 83.9134 93.8199 84.0397 93.8214C84.1277 93.8214 84.1717 93.8214 84.1717 93.8214C84.1717 93.8214 83.9869 93.8214 83.6921 93.9402C83.274 94.0946 82.9194 94.3842 82.6845 94.763C82.0861 95.7046 81.9189 97.425 82.5569 99.031C82.8539 99.7882 83.3187 100.468 83.9165 101.02C84.4064 101.471 84.9705 101.834 85.5841 102.093C86.16 102.321 86.759 102.485 87.3705 102.582Z" fill="#263238"/>
<path d="M97.6273 102.96C97.5172 101.611 97.4819 100.256 97.5216 98.9032C97.4872 97.5512 97.5283 96.1983 97.6448 94.8508C97.755 96.1986 97.7903 97.5515 97.7505 98.9032C97.7874 100.257 97.7463 101.611 97.6273 102.96Z" fill="#263238"/>
<path d="M81.4881 93.8522C81.5365 92.871 81.6377 91.7622 81.6377 91.7622C81.6377 91.7622 84.0665 91.4938 84.2117 88.9858C84.3569 86.4778 84.2117 80.6918 84.2117 80.6918L79.8117 78.439L74.9277 82.2802L75.6801 94.8202L80.1593 95.1062C80.5017 95.1156 80.8339 94.9889 81.083 94.7539C81.3321 94.5188 81.4778 94.1945 81.4881 93.8522Z" fill="#FFBE9D"/>
<path d="M81.9244 87.0013C81.9244 87.0013 81.9244 87.0497 81.8848 87.1069C81.852 87.1484 81.8097 87.1813 81.7614 87.2027C81.7131 87.2242 81.6603 87.2336 81.6076 87.2301C81.326 87.2301 81.0532 86.9045 80.9564 86.5261C80.9104 86.3427 80.9104 86.1507 80.9564 85.9673C80.9654 85.8872 80.9943 85.8107 81.0404 85.7446C81.0865 85.6785 81.1484 85.625 81.2204 85.5889C81.2796 85.5644 81.346 85.5644 81.4052 85.5889C81.4491 85.6107 81.4846 85.6462 81.5064 85.6901C81.5372 85.7649 81.5064 85.8133 81.5064 85.8089C81.5064 85.8045 81.5064 85.7649 81.4624 85.7209C81.4394 85.6894 81.4056 85.6675 81.3674 85.6593C81.3292 85.6512 81.2894 85.6575 81.2556 85.6769C81.2016 85.7095 81.1568 85.7553 81.1252 85.8099C81.0937 85.8645 81.0765 85.9262 81.0752 85.9893C81.0381 86.153 81.0381 86.3228 81.0752 86.4865C81.1632 86.8297 81.4008 87.1069 81.612 87.1333C81.6533 87.1389 81.6953 87.1359 81.7355 87.1246C81.7756 87.1132 81.8129 87.0937 81.8452 87.0673C81.898 87.0321 81.9156 86.9969 81.9244 87.0013Z" fill="#EB996E"/>
<path d="M85.7218 79.3365C85.383 78.1837 84.1554 77.6117 83.0378 77.2949C81.335 76.8109 79.4958 76.5997 77.8326 77.2113C76.1694 77.8229 74.1718 78.8965 74.1718 80.7313C73.1906 80.6521 72.6274 81.5101 72.2402 82.5749C71.9926 83.2236 71.8443 83.9059 71.8002 84.5989C71.677 87.0013 71.0038 90.3189 69.4462 92.0789C68.5662 93.0601 67.3474 93.7377 66.8458 94.9609C66.4058 96.0213 66.6346 97.2797 66.2254 98.3533C65.8602 99.2993 65.055 99.9725 64.4654 100.795C63.8647 101.729 63.5112 102.799 63.4381 103.907C63.3649 105.015 63.5746 106.123 64.0474 107.127C64.5235 108.105 65.1939 108.977 66.0177 109.688C66.8415 110.399 67.8014 110.935 68.839 111.263C70.8942 111.888 73.0859 111.91 75.153 111.324C76.7043 110.954 78.1514 110.236 79.3858 109.226C80.6487 108.194 81.5161 106.758 81.841 105.16C82.1534 103.365 81.6518 101.539 81.2778 99.7525C80.1074 94.1073 80.4418 93.8125 81.9202 88.5721C81.9554 88.4797 81.973 88.3829 81.9994 88.2905C82.0258 88.1981 82.039 88.1541 82.0566 88.0837C82.0986 87.8765 82.1207 87.6658 82.1226 87.4545C81.9066 87.5348 81.6722 87.5518 81.447 87.5035C81.2217 87.4551 81.015 87.3435 80.851 87.1817C80.6866 87.0092 80.572 86.7954 80.5193 86.563C80.4666 86.3306 80.4778 86.0882 80.5518 85.8617C80.6556 85.6139 80.8103 85.3907 81.0058 85.2065C81.2014 85.0224 81.4334 84.8813 81.687 84.7925C82.1754 84.5901 82.699 84.4845 83.1786 84.2601C84.195 83.7761 84.899 82.7729 85.3786 81.7213C85.7729 80.9924 85.8945 80.1469 85.7218 79.3365Z" fill="#263238"/>
<path d="M82.1006 87.1201C82.1936 87.2575 82.2703 87.4051 82.3294 87.5601C82.4614 87.8373 82.6374 88.2289 82.831 88.6821L82.8662 88.7657H82.7738L82.3338 88.8053C82.0302 88.8053 81.775 88.8625 81.4758 88.8581C81.4497 88.8523 81.4256 88.8399 81.4056 88.8222C81.3856 88.8045 81.3704 88.7821 81.3614 88.7569C81.3483 88.7169 81.3483 88.6737 81.3614 88.6337C81.3716 88.5744 81.3848 88.5157 81.401 88.4577L81.4802 88.1453C81.52 87.9369 81.5819 87.7334 81.665 87.5381C81.6568 87.7506 81.6258 87.9615 81.5726 88.1673L81.511 88.4797C81.489 88.5853 81.4494 88.7481 81.511 88.7349C81.731 88.7349 82.0434 88.6865 82.3338 88.6689L82.7738 88.6293L82.7166 88.7261C82.5274 88.2861 82.369 87.8725 82.2766 87.5865C82.1955 87.4404 82.1362 87.2833 82.1006 87.1201Z" fill="#FF6A00"/>
<path d="M67.0336 124.155L86.5476 123.561L95.0396 156.71L93.4776 194.735H83.1596L84.4224 157.52L76.8764 134.442L78.038 196.209L67.61 196.363L66.5144 138.305C66.466 136.69 65.938 133.052 66.136 131.45L67.0336 124.155Z" fill="#263238"/>
<path d="M79.4737 134.913C79.1543 134.933 78.8336 134.914 78.5189 134.856C77.9293 134.785 77.1241 134.662 76.2397 134.486C75.3553 134.31 74.5633 134.108 73.9913 133.945C73.6856 133.878 73.3898 133.771 73.1113 133.628C73.1113 133.562 74.5457 133.905 76.3057 134.262C78.0657 134.618 79.4825 134.847 79.4737 134.913Z" fill="#455A64"/>
<path d="M93.3728 192.65C93.3728 192.711 91.0364 192.764 88.1544 192.764C85.2724 192.764 82.9316 192.711 82.9316 192.65C82.9316 192.588 85.268 192.535 88.1544 192.535C91.0408 192.535 93.3728 192.584 93.3728 192.65Z" fill="#455A64"/>
<path d="M77.9457 194.603C77.9457 194.669 75.6753 194.718 72.8769 194.718C70.0785 194.718 67.8125 194.669 67.8125 194.603C67.8125 194.537 70.0829 194.489 72.8769 194.489C75.6709 194.489 77.9457 194.542 77.9457 194.603Z" fill="#455A64"/>
<path d="M76.5995 194.445C76.5379 194.445 76.2651 180.95 75.9879 164.305C75.7107 147.66 75.5479 134.156 75.6051 134.156C75.6623 134.156 75.9439 147.646 76.2167 164.3C76.4895 180.954 76.6655 194.445 76.5995 194.445Z" fill="#455A64"/>
<path d="M91.9868 192.65C91.9819 192.59 91.9819 192.529 91.9868 192.469V191.941C91.9868 191.466 92.022 190.784 92.0484 189.917C92.11 188.157 92.198 185.601 92.308 182.468C92.5456 176.167 92.88 167.482 93.2452 157.894C93.2452 157.802 93.2452 157.714 93.2452 157.634V157.665C90.9352 148.425 88.8452 140.039 87.3272 133.971L85.5672 126.795C85.3648 125.954 85.2108 125.299 85.1008 124.841C85.048 124.626 85.0128 124.458 84.982 124.331C84.9648 124.274 84.9545 124.214 84.9512 124.155C84.974 124.21 84.9917 124.268 85.004 124.326C85.0392 124.45 85.0832 124.617 85.1448 124.828C85.2636 125.268 85.4352 125.937 85.6552 126.773C86.0952 128.471 86.7156 130.918 87.49 133.932C89.0212 139.995 91.1332 148.359 93.474 157.612V157.643C93.474 157.722 93.474 157.815 93.474 157.903C93.0824 167.49 92.726 176.172 92.4664 182.472C92.33 185.61 92.2156 188.148 92.1364 189.917C92.0924 190.797 92.0572 191.466 92.0352 191.941C92.0352 192.166 92.0088 192.342 92.0044 192.469C92.005 192.53 91.9991 192.59 91.9868 192.65Z" fill="#455A64"/>
<path d="M88.6216 156.86C87.8804 157.104 87.117 157.273 86.3423 157.366C85.3919 157.529 84.5823 157.643 84.2171 157.661V157.573C84.3359 157.608 84.3975 157.63 84.3975 157.648C84.3975 157.665 84.3227 157.648 84.1995 157.648H83.9355L84.1995 157.569C84.5427 157.467 85.3523 157.3 86.3027 157.129C87.065 156.963 87.8417 156.873 88.6216 156.86Z" fill="#455A64"/>
<path d="M88.4406 158.123C87.7543 158.154 87.0666 158.123 86.3858 158.03C85.6985 158.016 85.0139 157.941 84.3398 157.806C85.7149 157.694 87.0991 157.801 88.4406 158.123Z" fill="#455A64"/>
<path opacity="0.2" d="M66.9512 124.854C67.1823 125.151 67.4734 125.396 67.8054 125.572C68.1375 125.749 68.5031 125.854 68.8784 125.88C69.6643 125.973 70.4593 125.958 71.2412 125.836C76.2792 125.277 81.6164 124.762 86.5488 123.561C80.1644 123.917 73.4192 123.798 67.0348 124.155L66.9688 124.7" fill="black"/>
<g opacity="0.2">
<path d="M73.5293 133.853L77.1285 147.818L76.8777 134.442L73.5293 133.853Z" fill="black"/>
</g>
<path d="M28.891 221.363V222.917H22.528V227.852H27.694V229.406H22.528V236H20.617V221.363H28.891ZM32.186 222.623C31.822 222.623 31.514 222.497 31.262 222.245C31.01 221.993 30.884 221.685 30.884 221.321C30.884 220.957 31.01 220.649 31.262 220.397C31.514 220.145 31.822 220.019 32.186 220.019C32.536 220.019 32.83 220.145 33.068 220.397C33.32 220.649 33.446 220.957 33.446 221.321C33.446 221.685 33.32 221.993 33.068 222.245C32.83 222.497 32.536 222.623 32.186 222.623ZM33.11 224.492V236H31.199V224.492H33.11ZM41.974 224.282C43.374 224.282 44.508 224.709 45.376 225.563C46.244 226.403 46.678 227.621 46.678 229.217V236H44.788V229.49C44.788 228.342 44.501 227.467 43.927 226.865C43.353 226.249 42.569 225.941 41.575 225.941C40.567 225.941 39.762 226.256 39.16 226.886C38.572 227.516 38.278 228.433 38.278 229.637V236H36.367V224.492H38.278V226.13C38.656 225.542 39.167 225.087 39.811 224.765C40.469 224.443 41.19 224.282 41.974 224.282ZM49.0856 230.204C49.0856 229.028 49.3236 227.999 49.7996 227.117C50.2756 226.221 50.9266 225.528 51.7526 225.038C52.5926 224.548 53.5306 224.303 54.5666 224.303C55.4626 224.303 56.2956 224.513 57.0656 224.933C57.8356 225.339 58.4236 225.878 58.8296 226.55V220.46H60.7616V236H58.8296V233.837C58.4516 234.523 57.8916 235.09 57.1496 235.538C56.4076 235.972 55.5396 236.189 54.5456 236.189C53.5236 236.189 52.5926 235.937 51.7526 235.433C50.9266 234.929 50.2756 234.222 49.7996 233.312C49.3236 232.402 49.0856 231.366 49.0856 230.204ZM58.8296 230.225C58.8296 229.357 58.6546 228.601 58.3046 227.957C57.9546 227.313 57.4786 226.823 56.8766 226.487C56.2886 226.137 55.6376 225.962 54.9236 225.962C54.2096 225.962 53.5586 226.13 52.9706 226.466C52.3826 226.802 51.9136 227.292 51.5636 227.936C51.2136 228.58 51.0386 229.336 51.0386 230.204C51.0386 231.086 51.2136 231.856 51.5636 232.514C51.9136 233.158 52.3826 233.655 52.9706 234.005C53.5586 234.341 54.2096 234.509 54.9236 234.509C55.6376 234.509 56.2886 234.341 56.8766 234.005C57.4786 233.655 57.9546 233.158 58.3046 232.514C58.6546 231.856 58.8296 231.093 58.8296 230.225ZM71.9207 226.067V232.85C71.9207 233.41 72.0397 233.809 72.2777 234.047C72.5157 234.271 72.9287 234.383 73.5167 234.383H74.9237V236H73.2017C72.1377 236 71.3397 235.755 70.8077 235.265C70.2757 234.775 70.0097 233.97 70.0097 232.85V226.067H68.5187V224.492H70.0097V221.594H71.9207V224.492H74.9237V226.067H71.9207ZM82.9511 224.282C83.8191 224.282 84.6031 224.471 85.3031 224.849C86.0031 225.213 86.5491 225.766 86.9411 226.508C87.3471 227.25 87.5501 228.153 87.5501 229.217V236H85.6601V229.49C85.6601 228.342 85.3731 227.467 84.7991 226.865C84.2251 226.249 83.4411 225.941 82.4471 225.941C81.4391 225.941 80.6341 226.256 80.0321 226.886C79.4441 227.516 79.1501 228.433 79.1501 229.637V236H77.2391V220.46H79.1501V226.13C79.5281 225.542 80.0461 225.087 80.7041 224.765C81.3761 224.443 82.1251 224.282 82.9511 224.282ZM101.172 229.805C101.172 230.169 101.151 230.554 101.109 230.96H91.9107C91.9807 232.094 92.3657 232.983 93.0657 233.627C93.7797 234.257 94.6407 234.572 95.6487 234.572C96.4747 234.572 97.1607 234.383 97.7067 234.005C98.2667 233.613 98.6587 233.095 98.8827 232.451H100.941C100.633 233.557 100.017 234.46 99.0927 235.16C98.1687 235.846 97.0207 236.189 95.6487 236.189C94.5567 236.189 93.5767 235.944 92.7087 235.454C91.8547 234.964 91.1827 234.271 90.6927 233.375C90.2027 232.465 89.9577 231.415 89.9577 230.225C89.9577 229.035 90.1957 227.992 90.6717 227.096C91.1477 226.2 91.8127 225.514 92.6667 225.038C93.5347 224.548 94.5287 224.303 95.6487 224.303C96.7407 224.303 97.7067 224.541 98.5467 225.017C99.3867 225.493 100.031 226.151 100.479 226.991C100.941 227.817 101.172 228.755 101.172 229.805ZM99.1977 229.406C99.1977 228.678 99.0367 228.055 98.7147 227.537C98.3927 227.005 97.9517 226.606 97.3917 226.34C96.8457 226.06 96.2367 225.92 95.5647 225.92C94.5987 225.92 93.7727 226.228 93.0867 226.844C92.4147 227.46 92.0297 228.314 91.9317 229.406H99.1977ZM150.384 226.067V232.85C150.384 233.41 150.503 233.809 150.741 234.047C150.979 234.271 151.392 234.383 151.98 234.383H153.387V236H151.665C150.601 236 149.803 235.755 149.271 235.265C148.739 234.775 148.473 233.97 148.473 232.85V226.067H146.982V224.492H148.473V221.594H150.384V224.492H153.387V226.067H150.384ZM161.414 224.282C162.282 224.282 163.066 224.471 163.766 224.849C164.466 225.213 165.012 225.766 165.404 226.508C165.81 227.25 166.013 228.153 166.013 229.217V236H164.123V229.49C164.123 228.342 163.836 227.467 163.262 226.865C162.688 226.249 161.904 225.941 160.91 225.941C159.902 225.941 159.097 226.256 158.495 226.886C157.907 227.516 157.613 228.433 157.613 229.637V236H155.702V220.46H157.613V226.13C157.991 225.542 158.509 225.087 159.167 224.765C159.839 224.443 160.588 224.282 161.414 224.282ZM168.421 230.204C168.421 229.028 168.659 227.999 169.135 227.117C169.611 226.221 170.262 225.528 171.088 225.038C171.928 224.548 172.859 224.303 173.881 224.303C174.889 224.303 175.764 224.52 176.506 224.954C177.248 225.388 177.801 225.934 178.165 226.592V224.492H180.097V236H178.165V233.858C177.787 234.53 177.22 235.09 176.464 235.538C175.722 235.972 174.854 236.189 173.86 236.189C172.838 236.189 171.914 235.937 171.088 235.433C170.262 234.929 169.611 234.222 169.135 233.312C168.659 232.402 168.421 231.366 168.421 230.204ZM178.165 230.225C178.165 229.357 177.99 228.601 177.64 227.957C177.29 227.313 176.814 226.823 176.212 226.487C175.624 226.137 174.973 225.962 174.259 225.962C173.545 225.962 172.894 226.13 172.306 226.466C171.718 226.802 171.249 227.292 170.899 227.936C170.549 228.58 170.374 229.336 170.374 230.204C170.374 231.086 170.549 231.856 170.899 232.514C171.249 233.158 171.718 233.655 172.306 234.005C172.894 234.341 173.545 234.509 174.259 234.509C174.973 234.509 175.624 234.341 176.212 234.005C176.814 233.655 177.29 233.158 177.64 232.514C177.99 231.856 178.165 231.093 178.165 230.225ZM185.657 226.067V232.85C185.657 233.41 185.776 233.809 186.014 234.047C186.252 234.271 186.665 234.383 187.253 234.383H188.66V236H186.938C185.874 236 185.076 235.755 184.544 235.265C184.012 234.775 183.746 233.97 183.746 232.85V226.067H182.255V224.492H183.746V221.594H185.657V224.492H188.66V226.067H185.657ZM201.257 226.067H198.842V236H196.931V226.067H195.44V224.492H196.931V223.673C196.931 222.385 197.26 221.447 197.918 220.859C198.59 220.257 199.661 219.956 201.131 219.956V221.552C200.291 221.552 199.696 221.72 199.346 222.056C199.01 222.378 198.842 222.917 198.842 223.673V224.492H201.257V226.067ZM204.472 222.623C204.108 222.623 203.8 222.497 203.548 222.245C203.296 221.993 203.17 221.685 203.17 221.321C203.17 220.957 203.296 220.649 203.548 220.397C203.8 220.145 204.108 220.019 204.472 220.019C204.822 220.019 205.116 220.145 205.354 220.397C205.606 220.649 205.732 220.957 205.732 221.321C205.732 221.685 205.606 221.993 205.354 222.245C205.116 222.497 204.822 222.623 204.472 222.623ZM205.396 224.492V236H203.485V224.492H205.396ZM210.984 226.067V232.85C210.984 233.41 211.103 233.809 211.341 234.047C211.579 234.271 211.992 234.383 212.58 234.383H213.987V236H212.265C211.201 236 210.403 235.755 209.871 235.265C209.339 234.775 209.073 233.97 209.073 232.85V226.067H207.582V224.492H209.073V221.594H210.984V224.492H213.987V226.067H210.984ZM220.377 236.189C219.495 236.189 218.704 236.042 218.004 235.748C217.304 235.44 216.751 235.02 216.345 234.488C215.939 233.942 215.715 233.319 215.673 232.619H217.647C217.703 233.193 217.969 233.662 218.445 234.026C218.935 234.39 219.572 234.572 220.356 234.572C221.084 234.572 221.658 234.411 222.078 234.089C222.498 233.767 222.708 233.361 222.708 232.871C222.708 232.367 222.484 231.996 222.036 231.758C221.588 231.506 220.895 231.261 219.957 231.023C219.103 230.799 218.403 230.575 217.857 230.351C217.325 230.113 216.863 229.77 216.471 229.322C216.093 228.86 215.904 228.258 215.904 227.516C215.904 226.928 216.079 226.389 216.429 225.899C216.779 225.409 217.276 225.024 217.92 224.744C218.564 224.45 219.299 224.303 220.125 224.303C221.399 224.303 222.428 224.625 223.212 225.269C223.996 225.913 224.416 226.795 224.472 227.915H222.561C222.519 227.313 222.274 226.83 221.826 226.466C221.392 226.102 220.804 225.92 220.062 225.92C219.376 225.92 218.83 226.067 218.424 226.361C218.018 226.655 217.815 227.04 217.815 227.516C217.815 227.894 217.934 228.209 218.172 228.461C218.424 228.699 218.732 228.895 219.096 229.049C219.474 229.189 219.992 229.35 220.65 229.532C221.476 229.756 222.148 229.98 222.666 230.204C223.184 230.414 223.625 230.736 223.989 231.17C224.367 231.604 224.563 232.171 224.577 232.871C224.577 233.501 224.402 234.068 224.052 234.572C223.702 235.076 223.205 235.475 222.561 235.769C221.931 236.049 221.203 236.189 220.377 236.189ZM30.529 249.492L23.599 266.418H21.625L23.893 260.874L19.252 249.492H21.373L24.985 258.816L28.555 249.492H30.529ZM37.469 261.189C36.391 261.189 35.411 260.944 34.529 260.454C33.661 259.964 32.975 259.271 32.471 258.375C31.981 257.465 31.736 256.415 31.736 255.225C31.736 254.049 31.988 253.013 32.492 252.117C33.01 251.207 33.71 250.514 34.592 250.038C35.474 249.548 36.461 249.303 37.553 249.303C38.645 249.303 39.632 249.548 40.514 250.038C41.396 250.514 42.089 251.2 42.593 252.096C43.111 252.992 43.37 254.035 43.37 255.225C43.37 256.415 43.104 257.465 42.572 258.375C42.054 259.271 41.347 259.964 40.451 260.454C39.555 260.944 38.561 261.189 37.469 261.189ZM37.469 259.509C38.155 259.509 38.799 259.348 39.401 259.026C40.003 258.704 40.486 258.221 40.85 257.577C41.228 256.933 41.417 256.149 41.417 255.225C41.417 254.301 41.235 253.517 40.871 252.873C40.507 252.229 40.031 251.753 39.443 251.445C38.855 251.123 38.218 250.962 37.532 250.962C36.832 250.962 36.188 251.123 35.6 251.445C35.026 251.753 34.564 252.229 34.214 252.873C33.864 253.517 33.689 254.301 33.689 255.225C33.689 256.163 33.857 256.954 34.193 257.598C34.543 258.242 35.005 258.725 35.579 259.047C36.153 259.355 36.783 259.509 37.469 259.509ZM56.0886 249.492V261H54.1776V259.299C53.8136 259.887 53.3026 260.349 52.6446 260.685C52.0006 261.007 51.2866 261.168 50.5026 261.168C49.6066 261.168 48.8016 260.986 48.0876 260.622C47.3736 260.244 46.8066 259.684 46.3866 258.942C45.9806 258.2 45.7776 257.297 45.7776 256.233V249.492H47.6676V255.981C47.6676 257.115 47.9546 257.99 48.5286 258.606C49.1026 259.208 49.8866 259.509 50.8806 259.509C51.9026 259.509 52.7076 259.194 53.2956 258.564C53.8836 257.934 54.1776 257.017 54.1776 255.813V249.492H56.0886ZM61.2262 251.361C61.5622 250.703 62.0382 250.192 62.6542 249.828C63.2842 249.464 64.0472 249.282 64.9432 249.282V251.256H64.4392C62.2972 251.256 61.2262 252.418 61.2262 254.742V261H59.3152V249.492H61.2262V251.361ZM74.6589 245.46V261H72.7479V245.46H74.6589ZM78.9028 247.623C78.5388 247.623 78.2308 247.497 77.9788 247.245C77.7268 246.993 77.6008 246.685 77.6008 246.321C77.6008 245.957 77.7268 245.649 77.9788 245.397C78.2308 245.145 78.5388 245.019 78.9028 245.019C79.2528 245.019 79.5468 245.145 79.7848 245.397C80.0368 245.649 80.1628 245.957 80.1628 246.321C80.1628 246.685 80.0368 246.993 79.7848 247.245C79.5468 247.497 79.2528 247.623 78.9028 247.623ZM79.8268 249.492V261H77.9158V249.492H79.8268ZM87.7668 251.067H85.3518V261H83.4408V251.067H81.9498V249.492H83.4408V248.673C83.4408 247.385 83.7698 246.447 84.4278 245.859C85.0998 245.257 86.1708 244.956 87.6408 244.956V246.552C86.8008 246.552 86.2058 246.72 85.8558 247.056C85.5198 247.378 85.3518 247.917 85.3518 248.673V249.492H87.7668V251.067ZM100.495 254.805C100.495 255.169 100.474 255.554 100.432 255.96H91.2339C91.3039 257.094 91.6889 257.983 92.3889 258.627C93.1029 259.257 93.9639 259.572 94.9719 259.572C95.7979 259.572 96.4839 259.383 97.0299 259.005C97.5899 258.613 97.9819 258.095 98.2059 257.451H100.264C99.9559 258.557 99.3399 259.46 98.4159 260.16C97.4919 260.846 96.3439 261.189 94.9719 261.189C93.8799 261.189 92.8999 260.944 92.0319 260.454C91.1779 259.964 90.5059 259.271 90.0159 258.375C89.5259 257.465 89.2809 256.415 89.2809 255.225C89.2809 254.035 89.5189 252.992 89.9949 252.096C90.4709 251.2 91.1359 250.514 91.9899 250.038C92.8579 249.548 93.8519 249.303 94.9719 249.303C96.0639 249.303 97.0299 249.541 97.8699 250.017C98.7099 250.493 99.3539 251.151 99.8019 251.991C100.264 252.817 100.495 253.755 100.495 254.805ZM98.5209 254.406C98.5209 253.678 98.3599 253.055 98.0379 252.537C97.7159 252.005 97.2749 251.606 96.7149 251.34C96.1689 251.06 95.5599 250.92 94.8879 250.92C93.9219 250.92 93.0959 251.228 92.4099 251.844C91.7379 252.46 91.3529 253.314 91.2549 254.406H98.5209Z" fill="#37474F"/>
<path d="M110.469 222.896C110.035 222.896 109.671 222.749 109.377 222.455C109.083 222.161 108.936 221.797 108.936 221.363C108.936 220.929 109.083 220.565 109.377 220.271C109.671 219.977 110.035 219.83 110.469 219.83C110.889 219.83 111.246 219.977 111.54 220.271C111.834 220.565 111.981 220.929 111.981 221.363C111.981 221.797 111.834 222.161 111.54 222.455C111.246 222.749 110.889 222.896 110.469 222.896ZM111.645 238.268C111.645 239.402 111.358 240.221 110.784 240.725C110.224 241.243 109.405 241.502 108.327 241.502H107.088V239.486H107.907C108.397 239.486 108.74 239.388 108.936 239.192C109.146 239.01 109.251 238.702 109.251 238.268V224.429H111.645V238.268ZM119.807 236.189C118.715 236.189 117.728 235.944 116.846 235.454C115.964 234.95 115.271 234.25 114.767 233.354C114.263 232.444 114.011 231.394 114.011 230.204C114.011 229.028 114.27 227.985 114.788 227.075C115.306 226.165 116.013 225.465 116.909 224.975C117.805 224.485 118.806 224.24 119.912 224.24C121.018 224.24 122.019 224.485 122.915 224.975C123.811 225.465 124.518 226.165 125.036 227.075C125.554 227.985 125.813 229.028 125.813 230.204C125.813 231.38 125.547 232.423 125.015 233.333C124.483 234.243 123.755 234.95 122.831 235.454C121.921 235.944 120.913 236.189 119.807 236.189ZM119.807 234.11C120.423 234.11 120.997 233.963 121.529 233.669C122.075 233.375 122.516 232.934 122.852 232.346C123.188 231.758 123.356 231.044 123.356 230.204C123.356 229.364 123.195 228.657 122.873 228.083C122.551 227.495 122.124 227.054 121.592 226.76C121.06 226.466 120.486 226.319 119.87 226.319C119.254 226.319 118.68 226.466 118.148 226.76C117.63 227.054 117.217 227.495 116.909 228.083C116.601 228.657 116.447 229.364 116.447 230.204C116.447 231.45 116.762 232.416 117.392 233.102C118.036 233.774 118.841 234.11 119.807 234.11ZM130.573 226.151C130.979 225.591 131.532 225.136 132.232 224.786C132.946 224.422 133.737 224.24 134.605 224.24C135.627 224.24 136.551 224.485 137.377 224.975C138.203 225.465 138.854 226.165 139.33 227.075C139.806 227.971 140.044 229 140.044 230.162C140.044 231.324 139.806 232.367 139.33 233.291C138.854 234.201 138.196 234.915 137.356 235.433C136.53 235.937 135.613 236.189 134.605 236.189C133.709 236.189 132.911 236.014 132.211 235.664C131.525 235.314 130.979 234.866 130.573 234.32V236H128.179V220.46H130.573V226.151ZM137.608 230.162C137.608 229.364 137.44 228.678 137.104 228.104C136.782 227.516 136.348 227.075 135.802 226.781C135.27 226.473 134.696 226.319 134.08 226.319C133.478 226.319 132.904 226.473 132.358 226.781C131.826 227.089 131.392 227.537 131.056 228.125C130.734 228.713 130.573 229.406 130.573 230.204C130.573 231.002 130.734 231.702 131.056 232.304C131.392 232.892 131.826 233.34 132.358 233.648C132.904 233.956 133.478 234.11 134.08 234.11C134.696 234.11 135.27 233.956 135.802 233.648C136.348 233.326 136.782 232.864 137.104 232.262C137.44 231.66 137.608 230.96 137.608 230.162Z" fill="#FF7600"/>
<path d="M20.5 283H71.5M71.5 283L68.7828 278M71.5 283L68.7828 288" stroke="#FF7600" stroke-width="2"/>
</svg>
