<svg width="520" height="520" viewBox="0 0 520 520" fill="none" xmlns="http://www.w3.org/2000/svg">
<path d="M101.661 429.364C189.104 475.051 330.897 475.051 418.341 429.364C505.784 383.677 505.794 309.608 418.341 263.921C330.887 218.234 189.104 218.234 101.661 263.921C14.2173 309.608 14.2069 383.677 101.661 429.364Z" fill="#FFDEC8"/>
<path d="M328.338 417.81C354.708 417.81 376.085 407.622 376.085 395.054C376.085 382.487 354.708 372.299 328.338 372.299C301.969 372.299 280.592 382.487 280.592 395.054C280.592 407.622 301.969 417.81 328.338 417.81Z" fill="#EBEBEB"/>
<path d="M412.921 365.914C433.265 365.914 449.758 358.054 449.758 348.358C449.758 338.663 433.265 330.803 412.921 330.803C392.576 330.803 376.084 338.663 376.084 348.358C376.084 358.054 392.576 365.914 412.921 365.914Z" fill="#EBEBEB"/>
<path d="M150.374 343.439C148.294 332.457 140.681 316.805 131.394 308.079C122.46 299.697 109.2 296.774 103.917 300.643C98.6338 304.512 102.097 312.874 112.351 323.066C123.927 334.558 146.151 366.444 150.374 384.509V343.439Z" fill="#FF7600"/>
<g opacity="0.2">
<path d="M150.374 343.439C148.294 332.457 140.681 316.805 131.394 308.079C122.46 299.697 109.2 296.774 103.917 300.643C98.6338 304.512 102.097 312.874 112.351 323.066C123.927 334.558 146.151 366.444 150.374 384.509V343.439Z" fill="black"/>
</g>
<path d="M150.375 369.866C150.244 369.864 150.119 369.814 150.023 369.726C149.928 369.637 149.867 369.517 149.855 369.387C147.234 341.723 127.89 310.627 109.295 304.148C109.165 304.101 109.059 304.005 108.998 303.881C108.938 303.756 108.929 303.613 108.972 303.482C109.019 303.353 109.115 303.246 109.24 303.186C109.364 303.126 109.507 303.116 109.638 303.16C128.92 309.868 148.212 340.777 150.916 369.294C150.927 369.431 150.885 369.568 150.798 369.675C150.71 369.781 150.585 369.85 150.448 369.866H150.375Z" fill="white"/>
<path d="M150.373 397.79C150.373 397.79 146.775 400.66 134.773 399.537C122.771 398.414 116.583 389.834 116.583 386.152C116.583 382.47 127.618 381.836 130.01 372.705C127.577 375.313 124.34 377.03 120.816 377.582C114.576 378.758 109.563 376.761 108.139 365.394C111.214 365.843 114.352 365.583 117.311 364.634C122.251 363.043 123.427 360.329 122.137 359.746C120.847 359.164 113.963 359.746 109.553 358.072C105.143 356.398 108.513 333.434 111.404 331.802C114.295 330.169 127.971 334.017 130.634 336.076C133.005 337.906 136.333 341.078 134.794 347.786C136.617 346.082 138.038 343.993 138.954 341.671C140.243 338.551 141.179 339.279 143.114 340.475C144.275 341.13 145.284 342.026 146.071 343.102C146.859 344.178 147.407 345.41 147.679 346.715C148.147 349.627 147.388 359.674 143.291 362.939C143.291 362.939 147.222 363.438 150.435 356.803C150.435 356.803 156.675 359.32 158.09 363.397C159.504 367.474 161.043 387.431 150.373 397.79Z" fill="#FF7600"/>
<path d="M151.435 400.057C151.308 400.056 151.185 400.009 151.09 399.925C150.994 399.841 150.932 399.725 150.915 399.599C148.169 377.125 131.082 347.599 114.328 336.513C114.212 336.436 114.131 336.315 114.104 336.179C114.077 336.042 114.105 335.901 114.182 335.785C114.259 335.669 114.379 335.589 114.516 335.561C114.652 335.534 114.794 335.562 114.91 335.639C131.872 346.923 149.23 376.75 151.944 399.474C151.962 399.611 151.925 399.749 151.841 399.858C151.757 399.967 151.634 400.039 151.497 400.057H151.435Z" fill="white"/>
<path d="M152.484 403.198C151.864 402.768 151.352 402.199 150.991 401.536C150.63 400.873 150.429 400.135 150.404 399.381V150.914C150.447 150.133 150.673 149.372 151.065 148.694C151.458 148.016 152.004 147.441 152.661 147.014L308.661 56.9296C309.313 56.5206 310.064 56.2971 310.834 56.2832C311.603 56.2692 312.362 56.4653 313.028 56.8504C313.695 57.2354 314.243 57.7949 314.616 58.4685C314.988 59.1422 315.169 59.9045 315.14 60.6736L156.852 403.114C156.182 403.471 155.437 403.664 154.678 403.679C153.919 403.693 153.168 403.528 152.484 403.198Z" fill="white"/>
<path d="M154.595 155.636L217.963 114.171L213.74 111.727L152.63 147.014C151.973 147.441 151.426 148.016 151.034 148.694C150.642 149.372 150.415 150.133 150.373 150.914V153.192L154.595 155.636Z" fill="#37474F"/>
<path opacity="0.2" d="M154.595 155.636L217.963 114.171L213.74 111.727L152.63 147.014C151.973 147.441 151.426 148.016 151.034 148.694C150.642 149.372 150.415 150.133 150.373 150.914V153.192L154.595 155.636Z" fill="#37474F"/>
<path d="M175.76 162.947L151.029 148.72C150.626 149.391 150.4 150.153 150.374 150.935V399.36C150.347 400.128 150.53 400.889 150.903 401.561C151.276 402.233 151.825 402.791 152.491 403.175C153.157 403.559 153.914 403.754 154.683 403.74C155.452 403.725 156.202 403.502 156.853 403.094L175.76 392.226V162.947Z" fill="#263238"/>
<path opacity="0.4" d="M175.76 162.947L151.029 148.72C150.626 149.391 150.4 150.153 150.374 150.935V399.36C150.347 400.128 150.53 400.889 150.903 401.561C151.276 402.233 151.825 402.791 152.491 403.175C153.157 403.559 153.914 403.754 154.683 403.74C155.452 403.725 156.202 403.502 156.853 403.094L175.76 392.226V162.947Z" fill="#263238"/>
<path d="M156.853 403.114L312.853 313.03C313.509 312.603 314.056 312.028 314.448 311.35C314.84 310.672 315.067 309.911 315.109 309.13V60.6736C315.109 59.2384 314.069 58.656 312.853 59.3736L156.853 149.458C156.196 149.885 155.649 150.46 155.257 151.138C154.865 151.816 154.638 152.577 154.596 153.358V401.814C154.596 403.25 155.605 403.832 156.853 403.114Z" fill="#455A64"/>
<path opacity="0.1" d="M156.853 403.114L312.853 313.03C313.509 312.603 314.056 312.028 314.448 311.35C314.84 310.672 315.067 309.911 315.109 309.13V60.6736C315.109 59.2384 314.069 58.656 312.853 59.3736L156.853 149.458C156.196 149.885 155.649 150.46 155.257 151.138C154.865 151.816 154.638 152.577 154.596 153.358V401.814C154.596 403.25 155.605 403.832 156.853 403.114Z" fill="#455A64"/>
<path d="M167.554 210.746L204.994 189.114C207.48 187.678 209.497 188.698 209.497 191.391C209.386 192.904 208.921 194.369 208.138 195.668C207.356 196.967 206.279 198.063 204.994 198.869L167.554 220.501C165.058 221.936 163.051 220.917 163.051 218.223C163.159 216.71 163.624 215.244 164.407 213.945C165.189 212.645 166.268 211.549 167.554 210.746Z" fill="#FF7600"/>
<path d="M167.554 226.096L192.337 211.786C194.823 210.35 196.84 211.37 196.84 214.063C196.729 215.576 196.264 217.041 195.481 218.34C194.699 219.639 193.622 220.735 192.337 221.541L167.554 235.851C165.058 237.286 163.051 236.267 163.051 233.574C163.159 232.061 163.624 230.595 164.407 229.295C165.189 227.996 166.268 226.9 167.554 226.096Z" fill="#FF7600"/>
<path d="M164.85 252.366L169.696 249.569C170.736 248.997 171.496 249.465 171.496 250.609V256.204C171.462 256.829 171.281 257.437 170.969 257.979C170.656 258.521 170.22 258.982 169.696 259.324L164.85 262.08C163.81 262.662 163.051 262.194 163.051 261.04V255.445C163.092 254.827 163.276 254.228 163.588 253.694C163.9 253.159 164.332 252.705 164.85 252.366Z" fill="#FF7600"/>
<path opacity="0.2" d="M164.85 252.366L169.696 249.569C170.736 248.997 171.496 249.465 171.496 250.609V256.204C171.462 256.829 171.281 257.437 170.969 257.979C170.656 258.521 170.22 258.982 169.696 259.324L164.85 262.08C163.81 262.662 163.051 262.194 163.051 261.04V255.445C163.092 254.827 163.276 254.228 163.588 253.694C163.9 253.159 164.332 252.705 164.85 252.366Z" fill="black"/>
<path d="M164.85 271.887L169.696 269.09C170.736 268.507 171.496 268.975 171.496 270.13V275.725C171.459 276.349 171.278 276.956 170.966 277.498C170.653 278.04 170.219 278.501 169.696 278.845L164.85 281.642C163.81 282.214 163.051 281.746 163.051 280.602V275.007C163.083 274.382 163.263 273.773 163.575 273.231C163.888 272.689 164.325 272.228 164.85 271.887Z" fill="#FF7600"/>
<g opacity="0.2">
<path d="M164.85 271.887L169.696 269.09C170.736 268.507 171.496 268.975 171.496 270.13V275.725C171.459 276.349 171.278 276.956 170.966 277.498C170.653 278.04 170.219 278.501 169.696 278.845L164.85 281.642C163.81 282.214 163.051 281.746 163.051 280.602V275.007C163.083 274.382 163.263 273.773 163.575 273.231C163.888 272.689 164.325 272.228 164.85 271.887Z" fill="black"/>
</g>
<path d="M177.976 266.75L207.262 249.829C208.51 249.111 209.519 249.621 209.519 250.973C209.462 251.729 209.228 252.461 208.836 253.109C208.444 253.758 207.905 254.305 207.262 254.706L177.976 271.627C176.728 272.345 175.719 271.835 175.719 270.483C175.775 269.727 176.009 268.996 176.401 268.347C176.793 267.698 177.333 267.151 177.976 266.75Z" fill="#FF7600"/>
<path opacity="0.2" d="M177.976 266.75L207.262 249.829C208.51 249.111 209.519 249.621 209.519 250.973C209.462 251.729 209.228 252.461 208.836 253.109C208.444 253.758 207.905 254.305 207.262 254.706L177.976 271.627C176.728 272.345 175.719 271.835 175.719 270.483C175.775 269.727 176.009 268.996 176.401 268.347C176.793 267.698 177.333 267.151 177.976 266.75Z" fill="black"/>
<path d="M164.85 291.398L169.696 288.6C170.736 288.018 171.496 288.486 171.496 289.64V295.235C171.46 295.86 171.279 296.467 170.967 297.009C170.654 297.551 170.219 298.012 169.696 298.355L164.85 301.153C163.81 301.725 163.051 301.257 163.051 300.113V294.518C163.083 293.892 163.263 293.284 163.575 292.741C163.888 292.199 164.325 291.739 164.85 291.398Z" fill="white"/>
<path d="M177.976 286.26L207.262 269.36C208.51 268.642 209.519 269.152 209.519 270.504C209.464 271.26 209.231 271.993 208.839 272.642C208.446 273.291 207.906 273.838 207.262 274.238L177.976 291.158C176.728 291.876 175.719 291.366 175.719 290.014C175.772 289.255 176.004 288.519 176.397 287.866C176.789 287.214 177.33 286.663 177.976 286.26Z" fill="white"/>
<path d="M164.85 310.96L169.696 308.162C170.736 307.58 171.496 308.048 171.496 309.202V314.798C171.46 315.422 171.279 316.029 170.967 316.571C170.654 317.113 170.219 317.574 169.696 317.918L164.85 320.715C163.81 321.287 163.051 320.819 163.051 319.675V314.08C163.083 313.455 163.263 312.846 163.575 312.304C163.888 311.761 164.325 311.301 164.85 310.96Z" fill="white"/>
<path d="M177.976 305.822L207.262 288.912C208.51 288.184 209.519 288.704 209.519 290.046C209.464 290.803 209.231 291.537 208.839 292.188C208.446 292.838 207.906 293.387 207.262 293.79L177.976 310.7C176.728 311.418 175.719 310.908 175.719 309.556C175.775 308.8 176.009 308.068 176.401 307.42C176.793 306.771 177.333 306.224 177.976 305.822Z" fill="white"/>
<path d="M164.85 330.47L169.696 327.673C170.736 327.09 171.496 327.558 171.496 328.713V334.308C171.46 334.932 171.279 335.54 170.967 336.082C170.654 336.624 170.219 337.085 169.696 337.428L164.85 340.226C163.81 340.798 163.051 340.33 163.051 339.186V333.59C163.083 332.965 163.263 332.356 163.575 331.814C163.888 331.272 164.325 330.811 164.85 330.47Z" fill="white"/>
<path d="M177.976 325.333L207.262 308.422C208.51 307.694 209.519 308.214 209.519 309.556C209.464 310.314 209.231 311.048 208.839 311.698C208.446 312.349 207.906 312.898 207.262 313.3L177.976 330.21C176.728 330.928 175.719 330.418 175.719 329.066C175.775 328.311 176.009 327.579 176.401 326.93C176.793 326.281 177.333 325.734 177.976 325.333Z" fill="white"/>
<path d="M165.297 349.669L186.097 337.636C187.345 336.918 188.354 337.428 188.354 338.78C188.297 339.536 188.064 340.268 187.672 340.916C187.28 341.565 186.74 342.112 186.097 342.514L165.297 354.546C164.06 355.264 163.051 354.754 163.051 353.413C163.105 352.656 163.337 351.923 163.727 351.273C164.118 350.622 164.655 350.073 165.297 349.669Z" fill="#FF7600"/>
<path d="M165.297 359.424L207.261 335.202C208.509 334.485 209.518 334.994 209.518 336.336C209.463 337.094 209.23 337.828 208.838 338.478C208.446 339.129 207.905 339.678 207.261 340.08L165.297 364.302C164.06 365.019 163.051 364.51 163.051 363.168C163.105 362.412 163.337 361.678 163.727 361.028C164.118 360.378 164.655 359.828 165.297 359.424Z" fill="#FF7600"/>
<path opacity="0.8" d="M165.297 359.424L207.261 335.202C208.509 334.485 209.518 334.994 209.518 336.336C209.463 337.094 209.23 337.828 208.838 338.478C208.446 339.129 207.905 339.678 207.261 340.08L165.297 364.302C164.06 365.019 163.051 364.51 163.051 363.168C163.105 362.412 163.337 361.678 163.727 361.028C164.118 360.378 164.655 359.828 165.297 359.424Z" fill="white"/>
<path d="M165.297 359.424L194.594 342.514C195.832 341.796 196.84 342.306 196.84 343.658C196.784 344.412 196.552 345.143 196.162 345.792C195.771 346.44 195.234 346.988 194.594 347.391L165.297 364.302C164.06 365.019 163.051 364.51 163.051 363.168C163.105 362.412 163.337 361.679 163.727 361.028C164.118 360.378 164.655 359.828 165.297 359.424Z" fill="#FF7600"/>
<path d="M165.297 369.2L186.097 357.167C187.345 356.45 188.354 356.959 188.354 358.311C188.297 359.067 188.064 359.799 187.672 360.448C187.28 361.096 186.74 361.643 186.097 362.045L165.297 374.078C164.06 374.795 163.051 374.286 163.051 372.944C163.105 372.188 163.337 371.454 163.727 370.804C164.118 370.154 164.655 369.604 165.297 369.2Z" fill="#FF7600"/>
<path d="M177.976 247.229L207.262 230.318C208.51 229.601 209.519 230.11 209.519 231.462C209.462 232.218 209.228 232.95 208.836 233.599C208.444 234.247 207.905 234.795 207.262 235.196L177.976 252.106C176.728 252.824 175.719 252.314 175.719 250.973C175.774 250.215 176.007 249.481 176.399 248.831C176.791 248.18 177.331 247.631 177.976 247.229Z" fill="#FF7600"/>
<path opacity="0.2" d="M177.976 247.229L207.262 230.318C208.51 229.601 209.519 230.11 209.519 231.462C209.462 232.218 209.228 232.95 208.836 233.599C208.444 234.247 207.905 234.795 207.262 235.196L177.976 252.106C176.728 252.824 175.719 252.314 175.719 250.973C175.774 250.215 176.007 249.481 176.399 248.831C176.791 248.18 177.331 247.631 177.976 247.229Z" fill="black"/>
<path d="M165.297 369.2L186.097 357.167C187.345 356.45 188.354 356.959 188.354 358.311C188.297 359.067 188.064 359.799 187.672 360.448C187.28 361.096 186.74 361.643 186.097 362.045L165.297 374.078C164.06 374.795 163.051 374.286 163.051 372.944C163.105 372.188 163.337 371.454 163.727 370.804C164.118 370.154 164.655 369.604 165.297 369.2Z" fill="#FF7600"/>
<path d="M165.297 378.924L207.261 354.702C208.509 353.985 209.518 354.494 209.518 355.836C209.463 356.594 209.23 357.328 208.838 357.978C208.446 358.629 207.905 359.178 207.261 359.58L165.297 383.76C164.06 384.488 163.051 383.968 163.051 382.626C163.112 381.877 163.346 381.152 163.736 380.51C164.126 379.867 164.661 379.324 165.297 378.924Z" fill="#FF7600"/>
<path opacity="0.8" d="M165.297 378.924L207.261 354.702C208.509 353.985 209.518 354.494 209.518 355.836C209.463 356.594 209.23 357.328 208.838 357.978C208.446 358.629 207.905 359.178 207.261 359.58L165.297 383.76C164.06 384.488 163.051 383.968 163.051 382.626C163.112 381.877 163.346 381.152 163.736 380.51C164.126 379.867 164.661 379.324 165.297 378.924Z" fill="white"/>
<path d="M165.297 378.924L203.039 357.084C204.287 356.366 205.296 356.876 205.296 358.228C205.239 358.984 205.005 359.716 204.613 360.364C204.221 361.013 203.682 361.56 203.039 361.962L165.297 383.802C164.06 384.53 163.051 384.01 163.051 382.668C163.105 381.912 163.337 381.178 163.727 380.528C164.118 379.878 164.655 379.328 165.297 378.924Z" fill="#FF7600"/>
<path d="M312.873 59.3736L217.963 114.171V367.827L312.873 313.04C313.53 312.614 314.077 312.038 314.469 311.36C314.861 310.683 315.088 309.922 315.13 309.14V60.6736C315.12 59.28 314.08 58.656 312.873 59.3736Z" fill="#EBEBEB"/>
<path opacity="0.6" d="M312.873 59.3736L217.963 114.171V367.827L312.873 313.04C313.53 312.614 314.077 312.038 314.469 311.36C314.861 310.683 315.088 309.922 315.13 309.14V60.6736C315.12 59.28 314.08 58.656 312.873 59.3736Z" fill="#FAFAFA"/>
<path d="M217.962 123.926V143.437L209.518 153.192H217.962V172.702L306.674 121.482V72.7064L217.962 123.926Z" fill="#FF7600"/>
<g opacity="0.6">
<path d="M229.569 124.602L265.512 103.802C267.248 102.762 268.632 103.615 268.632 105.622C268.574 106.713 268.262 107.775 267.72 108.723C267.179 109.671 266.422 110.479 265.512 111.082L229.569 131.83C227.822 132.87 226.449 132.018 226.449 130.01C226.512 128.928 226.827 127.876 227.369 126.937C227.91 125.998 228.664 125.198 229.569 124.602Z" fill="white"/>
</g>
<path d="M227.541 140.4L297.107 100.235C297.731 99.8816 298.23 100.131 298.23 100.807C298.203 101.186 298.087 101.552 297.892 101.877C297.697 102.203 297.428 102.477 297.107 102.679L227.541 142.792C226.917 143.146 226.418 142.896 226.418 142.22C226.453 141.851 226.572 141.494 226.767 141.179C226.962 140.863 227.227 140.597 227.541 140.4Z" fill="#FF7600"/>
<path d="M227.541 140.4L297.107 100.235C297.731 99.8816 298.23 100.131 298.23 100.807C298.203 101.186 298.087 101.552 297.892 101.877C297.697 102.203 297.428 102.477 297.107 102.679L227.541 142.792C226.917 143.146 226.418 142.896 226.418 142.22C226.453 141.851 226.572 141.494 226.767 141.179C226.962 140.863 227.227 140.597 227.541 140.4Z" fill="#FF7600"/>
<path opacity="0.6" d="M227.541 140.4L297.107 100.235C297.731 99.8816 298.23 100.131 298.23 100.807C298.203 101.186 298.087 101.552 297.892 101.877C297.697 102.203 297.428 102.477 297.107 102.679L227.541 142.792C226.917 143.146 226.418 142.896 226.418 142.22C226.453 141.851 226.572 141.494 226.767 141.179C226.962 140.863 227.227 140.597 227.541 140.4Z" fill="white"/>
<path d="M227.541 147.68L297.107 107.515C297.731 107.151 298.23 107.411 298.23 108.087C298.203 108.464 298.087 108.829 297.892 109.153C297.697 109.477 297.428 109.749 297.107 109.949L227.541 150.114C226.917 150.478 226.418 150.218 226.418 149.542C226.445 149.165 226.561 148.799 226.756 148.476C226.951 148.152 227.22 147.88 227.541 147.68Z" fill="#FF7600"/>
<path opacity="0.6" d="M227.541 147.68L297.107 107.515C297.731 107.151 298.23 107.411 298.23 108.087C298.203 108.464 298.087 108.829 297.892 109.153C297.697 109.477 297.428 109.749 297.107 109.949L227.541 150.114C226.917 150.478 226.418 150.218 226.418 149.542C226.445 149.165 226.561 148.799 226.756 148.476C226.951 148.152 227.22 147.88 227.541 147.68Z" fill="white"/>
<path opacity="0.6" d="M227.541 154.96L297.107 114.795C297.731 114.442 298.23 114.691 298.23 115.367C298.203 115.746 298.087 116.112 297.892 116.437C297.697 116.763 297.428 117.037 297.107 117.239L227.541 157.404C226.917 157.758 226.418 157.508 226.418 156.832C226.445 156.454 226.561 156.087 226.756 155.762C226.951 155.436 227.22 155.162 227.541 154.96Z" fill="white"/>
<path d="M230.163 175.448L235.04 172.64C236.08 172.058 236.839 172.526 236.839 173.68V179.275C236.805 179.9 236.624 180.508 236.311 181.05C235.999 181.591 235.563 182.052 235.04 182.395L230.194 185.193C229.154 185.765 228.395 185.297 228.395 184.153V178.568C228.423 177.946 228.598 177.339 228.905 176.797C229.213 176.254 229.643 175.792 230.163 175.448Z" fill="#FF7600"/>
<path opacity="0.2" d="M230.163 175.448L235.04 172.64C236.08 172.058 236.839 172.526 236.839 173.68V179.275C236.805 179.9 236.624 180.508 236.311 181.05C235.999 181.591 235.563 182.052 235.04 182.395L230.194 185.193C229.154 185.765 228.395 185.297 228.395 184.153V178.568C228.423 177.946 228.598 177.339 228.905 176.797C229.213 176.254 229.643 175.792 230.163 175.448Z" fill="white"/>
<path d="M243.288 170.31L272.574 153.39C273.822 152.672 274.831 153.182 274.831 154.534C274.775 155.289 274.541 156.021 274.149 156.67C273.757 157.319 273.217 157.866 272.574 158.267L243.288 175.188C242.04 175.906 241.031 175.396 241.031 174.044C241.088 173.288 241.322 172.556 241.714 171.908C242.106 171.259 242.645 170.712 243.288 170.31Z" fill="#FF7600"/>
<path opacity="0.8" d="M243.288 170.31L272.574 153.39C273.822 152.672 274.831 153.182 274.831 154.534C274.775 155.289 274.541 156.021 274.149 156.67C273.757 157.319 273.217 157.866 272.574 158.267L243.288 175.188C242.04 175.906 241.031 175.396 241.031 174.044C241.088 173.288 241.322 172.556 241.714 171.908C242.106 171.259 242.645 170.712 243.288 170.31Z" fill="white"/>
<path d="M229.486 192.92L303.326 150.28C303.95 149.916 304.45 150.176 304.45 150.842C304.424 151.22 304.308 151.587 304.113 151.913C303.918 152.238 303.648 152.512 303.326 152.714L229.486 195.354C228.862 195.718 228.363 195.458 228.363 194.782C228.39 194.405 228.506 194.039 228.701 193.716C228.896 193.392 229.166 193.12 229.486 192.92Z" fill="#FF7600"/>
<path d="M229.486 200.231L303.326 157.591C303.95 157.238 304.45 157.487 304.45 158.163C304.423 158.542 304.307 158.908 304.112 159.233C303.917 159.559 303.648 159.833 303.326 160.035L229.486 202.675C228.862 203.029 228.363 202.779 228.363 202.103C228.39 201.725 228.506 201.358 228.701 201.033C228.896 200.708 229.165 200.433 229.486 200.231Z" fill="#FF7600"/>
<path d="M229.486 207.553L303.326 164.913C303.95 164.549 304.45 164.809 304.45 165.474C304.424 165.853 304.308 166.22 304.113 166.545C303.918 166.871 303.648 167.145 303.326 167.346L229.486 209.986C228.862 210.35 228.363 210.09 228.363 209.425C228.389 209.046 228.505 208.679 228.7 208.354C228.895 208.028 229.165 207.754 229.486 207.553Z" fill="#FF7600"/>
<path d="M229.486 214.885L303.326 172.245C303.95 171.891 304.45 172.141 304.45 172.817C304.423 173.195 304.307 173.562 304.112 173.887C303.917 174.212 303.648 174.487 303.326 174.689L229.486 217.329C228.862 217.682 228.363 217.433 228.363 216.757C228.39 216.378 228.506 216.012 228.701 215.687C228.896 215.361 229.165 215.087 229.486 214.885Z" fill="#FF7600"/>
<path d="M229.486 192.92L303.326 150.28C303.95 149.916 304.45 150.176 304.45 150.842C304.424 151.22 304.308 151.587 304.113 151.913C303.918 152.238 303.648 152.512 303.326 152.714L229.486 195.354C228.862 195.718 228.363 195.458 228.363 194.782C228.39 194.405 228.506 194.039 228.701 193.716C228.896 193.392 229.166 193.12 229.486 192.92Z" fill="white"/>
<path d="M229.486 200.231L303.326 157.591C303.95 157.238 304.45 157.487 304.45 158.163C304.423 158.542 304.307 158.908 304.112 159.233C303.917 159.559 303.648 159.833 303.326 160.035L229.486 202.675C228.862 203.029 228.363 202.779 228.363 202.103C228.39 201.725 228.506 201.358 228.701 201.033C228.896 200.708 229.165 200.433 229.486 200.231Z" fill="white"/>
<path d="M229.486 207.553L303.326 164.913C303.95 164.549 304.45 164.809 304.45 165.474C304.424 165.853 304.308 166.22 304.113 166.545C303.918 166.871 303.648 167.145 303.326 167.346L229.486 209.986C228.862 210.35 228.363 210.09 228.363 209.425C228.389 209.046 228.505 208.679 228.7 208.354C228.895 208.028 229.165 207.754 229.486 207.553Z" fill="white"/>
<path d="M229.486 214.885L303.326 172.245C303.95 171.891 304.45 172.141 304.45 172.817C304.423 173.195 304.307 173.562 304.112 173.887C303.917 174.212 303.648 174.487 303.326 174.689L229.486 217.329C228.862 217.682 228.363 217.433 228.363 216.757C228.39 216.378 228.506 216.012 228.701 215.687C228.896 215.361 229.165 215.087 229.486 214.885Z" fill="white"/>
<path opacity="0.8" d="M229.486 192.92L303.326 150.28C303.95 149.916 304.45 150.176 304.45 150.842C304.424 151.22 304.308 151.587 304.113 151.913C303.918 152.238 303.648 152.512 303.326 152.714L229.486 195.354C228.862 195.718 228.363 195.458 228.363 194.782C228.39 194.405 228.506 194.039 228.701 193.716C228.896 193.392 229.166 193.12 229.486 192.92Z" fill="white"/>
<path opacity="0.8" d="M229.486 200.231L303.326 157.591C303.95 157.238 304.45 157.487 304.45 158.163C304.423 158.542 304.307 158.908 304.112 159.233C303.917 159.559 303.648 159.833 303.326 160.035L229.486 202.675C228.862 203.029 228.363 202.779 228.363 202.103C228.39 201.725 228.506 201.358 228.701 201.033C228.896 200.708 229.165 200.433 229.486 200.231Z" fill="white"/>
<path opacity="0.8" d="M229.486 207.553L303.326 164.913C303.95 164.549 304.45 164.809 304.45 165.474C304.424 165.853 304.308 166.22 304.113 166.545C303.918 166.871 303.648 167.145 303.326 167.346L229.486 209.986C228.862 210.35 228.363 210.09 228.363 209.425C228.389 209.046 228.505 208.679 228.7 208.354C228.895 208.028 229.165 207.754 229.486 207.553Z" fill="white"/>
<path opacity="0.8" d="M229.486 214.885L303.326 172.245C303.95 171.891 304.45 172.141 304.45 172.817C304.423 173.195 304.307 173.562 304.112 173.887C303.917 174.212 303.648 174.487 303.326 174.689L229.486 217.329C228.862 217.682 228.363 217.433 228.363 216.757C228.39 216.378 228.506 216.012 228.701 215.687C228.896 215.361 229.165 215.087 229.486 214.885Z" fill="white"/>
<path d="M229.486 245.96L303.326 203.32C303.95 202.956 304.45 203.216 304.45 203.882C304.424 204.26 304.308 204.627 304.113 204.953C303.918 205.278 303.648 205.552 303.326 205.754L229.486 248.394C228.862 248.758 228.363 248.498 228.363 247.822C228.39 247.445 228.506 247.079 228.701 246.756C228.896 246.432 229.166 246.16 229.486 245.96Z" fill="white"/>
<path d="M229.486 253.271L303.326 210.631C303.95 210.278 304.45 210.527 304.45 211.203C304.423 211.582 304.307 211.948 304.112 212.273C303.917 212.599 303.648 212.873 303.326 213.075L229.486 255.715C228.862 256.069 228.363 255.819 228.363 255.143C228.39 254.765 228.506 254.398 228.701 254.073C228.896 253.748 229.165 253.473 229.486 253.271Z" fill="white"/>
<path d="M229.486 260.593L303.326 217.953C303.95 217.589 304.45 217.849 304.45 218.514C304.424 218.893 304.308 219.26 304.113 219.585C303.918 219.911 303.648 220.185 303.326 220.386L229.486 263.026C228.862 263.39 228.363 263.13 228.363 262.465C228.389 262.086 228.505 261.719 228.7 261.394C228.895 261.068 229.165 260.794 229.486 260.593Z" fill="white"/>
<path d="M229.486 267.925L303.326 225.285C303.95 224.931 304.45 225.181 304.45 225.857C304.423 226.235 304.307 226.602 304.112 226.927C303.917 227.252 303.648 227.527 303.326 227.729L229.486 270.369C228.862 270.722 228.363 270.473 228.363 269.797C228.39 269.418 228.506 269.052 228.701 268.727C228.896 268.401 229.165 268.127 229.486 267.925Z" fill="white"/>
<path opacity="0.8" d="M229.486 245.96L303.326 203.32C303.95 202.956 304.45 203.216 304.45 203.882C304.424 204.26 304.308 204.627 304.113 204.953C303.918 205.278 303.648 205.552 303.326 205.754L229.486 248.394C228.862 248.758 228.363 248.498 228.363 247.822C228.39 247.445 228.506 247.079 228.701 246.756C228.896 246.432 229.166 246.16 229.486 245.96Z" fill="white"/>
<path opacity="0.8" d="M229.486 253.271L303.326 210.631C303.95 210.278 304.45 210.527 304.45 211.203C304.423 211.582 304.307 211.948 304.112 212.273C303.917 212.599 303.648 212.873 303.326 213.075L229.486 255.715C228.862 256.069 228.363 255.819 228.363 255.143C228.39 254.765 228.506 254.398 228.701 254.073C228.896 253.748 229.165 253.473 229.486 253.271Z" fill="white"/>
<path opacity="0.8" d="M229.486 260.593L303.326 217.953C303.95 217.589 304.45 217.849 304.45 218.514C304.424 218.893 304.308 219.26 304.113 219.585C303.918 219.911 303.648 220.185 303.326 220.386L229.486 263.026C228.862 263.39 228.363 263.13 228.363 262.465C228.389 262.086 228.505 261.719 228.7 261.394C228.895 261.068 229.165 260.794 229.486 260.593Z" fill="white"/>
<path opacity="0.8" d="M229.486 267.925L303.326 225.285C303.95 224.931 304.45 225.181 304.45 225.857C304.423 226.235 304.307 226.602 304.112 226.927C303.917 227.252 303.648 227.527 303.326 227.729L229.486 270.369C228.862 270.722 228.363 270.473 228.363 269.797C228.39 269.418 228.506 269.052 228.701 268.727C228.896 268.401 229.165 268.127 229.486 267.925Z" fill="white"/>
<path d="M229.486 300.04L303.326 257.4C303.95 257.036 304.45 257.296 304.45 257.962C304.424 258.34 304.308 258.707 304.113 259.033C303.918 259.358 303.648 259.632 303.326 259.834L229.486 302.474C228.862 302.838 228.363 302.578 228.363 301.902C228.39 301.525 228.506 301.159 228.701 300.836C228.896 300.512 229.166 300.24 229.486 300.04Z" fill="white"/>
<path d="M229.486 307.351L303.326 264.711C303.95 264.358 304.45 264.607 304.45 265.283C304.423 265.662 304.307 266.028 304.112 266.353C303.917 266.679 303.648 266.953 303.326 267.155L229.486 309.795C228.862 310.149 228.363 309.899 228.363 309.223C228.39 308.845 228.506 308.478 228.701 308.153C228.896 307.828 229.165 307.553 229.486 307.351Z" fill="white"/>
<path d="M229.486 314.673L303.326 272.033C303.95 271.669 304.45 271.929 304.45 272.594C304.424 272.973 304.308 273.34 304.113 273.665C303.918 273.991 303.648 274.265 303.326 274.466L229.486 317.106C228.862 317.47 228.363 317.21 228.363 316.545C228.389 316.166 228.505 315.799 228.7 315.474C228.895 315.148 229.165 314.874 229.486 314.673Z" fill="white"/>
<path d="M229.486 322.005L303.326 279.365C303.95 279.011 304.45 279.261 304.45 279.937C304.423 280.315 304.307 280.682 304.112 281.007C303.917 281.332 303.648 281.607 303.326 281.809L229.486 324.449C228.862 324.802 228.363 324.553 228.363 323.877C228.39 323.498 228.506 323.132 228.701 322.807C228.896 322.481 229.165 322.207 229.486 322.005Z" fill="white"/>
<path opacity="0.8" d="M229.486 300.04L303.326 257.4C303.95 257.036 304.45 257.296 304.45 257.962C304.424 258.34 304.308 258.707 304.113 259.033C303.918 259.358 303.648 259.632 303.326 259.834L229.486 302.474C228.862 302.838 228.363 302.578 228.363 301.902C228.39 301.525 228.506 301.159 228.701 300.836C228.896 300.512 229.166 300.24 229.486 300.04Z" fill="white"/>
<path opacity="0.8" d="M229.486 307.351L303.326 264.711C303.95 264.358 304.45 264.607 304.45 265.283C304.423 265.662 304.307 266.028 304.112 266.353C303.917 266.679 303.648 266.953 303.326 267.155L229.486 309.795C228.862 310.149 228.363 309.899 228.363 309.223C228.39 308.845 228.506 308.478 228.701 308.153C228.896 307.828 229.165 307.553 229.486 307.351Z" fill="white"/>
<path opacity="0.8" d="M229.486 314.673L303.326 272.033C303.95 271.669 304.45 271.929 304.45 272.594C304.424 272.973 304.308 273.34 304.113 273.665C303.918 273.991 303.648 274.265 303.326 274.466L229.486 317.106C228.862 317.47 228.363 317.21 228.363 316.545C228.389 316.166 228.505 315.799 228.7 315.474C228.895 315.148 229.165 314.874 229.486 314.673Z" fill="white"/>
<path opacity="0.8" d="M229.486 322.005L303.326 279.365C303.95 279.011 304.45 279.261 304.45 279.937C304.423 280.315 304.307 280.682 304.112 281.007C303.917 281.332 303.648 281.607 303.326 281.809L229.486 324.449C228.862 324.802 228.363 324.553 228.363 323.877C228.39 323.498 228.506 323.132 228.701 322.807C228.896 322.481 229.165 322.207 229.486 322.005Z" fill="white"/>
<path d="M230.163 229.102L235.04 226.304C236.08 225.732 236.839 226.2 236.839 227.344V232.96C236.807 233.585 236.627 234.194 236.315 234.736C236.002 235.279 235.565 235.739 235.04 236.08L230.194 238.878C229.154 239.45 228.395 238.992 228.395 237.838V232.242C228.421 231.617 228.595 231.006 228.902 230.46C229.209 229.914 229.641 229.449 230.163 229.102Z" fill="#FF7600"/>
<path opacity="0.2" d="M230.163 229.102L235.04 226.304C236.08 225.732 236.839 226.2 236.839 227.344V232.96C236.807 233.585 236.627 234.194 236.315 234.736C236.002 235.279 235.565 235.739 235.04 236.08L230.194 238.878C229.154 239.45 228.395 238.992 228.395 237.838V232.242C228.421 231.617 228.595 231.006 228.902 230.46C229.209 229.914 229.641 229.449 230.163 229.102Z" fill="white"/>
<path d="M243.288 223.964L272.574 207.054C273.822 206.336 274.831 206.846 274.831 208.187C274.776 208.945 274.543 209.679 274.151 210.329C273.759 210.98 273.219 211.529 272.574 211.931L243.288 228.8C242.04 229.518 241.031 229.008 241.031 227.666C241.093 226.916 241.329 226.19 241.72 225.547C242.112 224.905 242.649 224.362 243.288 223.964Z" fill="#FF7600"/>
<path opacity="0.8" d="M243.288 223.964L272.574 207.054C273.822 206.336 274.831 206.846 274.831 208.187C274.776 208.945 274.543 209.679 274.151 210.329C273.759 210.98 273.219 211.529 272.574 211.931L243.288 228.8C242.04 229.518 241.031 229.008 241.031 227.666C241.093 226.916 241.329 226.19 241.72 225.547C242.112 224.905 242.649 224.362 243.288 223.964Z" fill="white"/>
<path d="M230.163 282.766L235.04 279.968C236.08 279.386 236.839 279.854 236.839 281.008V286.603C236.806 287.228 236.626 287.837 236.314 288.379C236.001 288.921 235.565 289.382 235.04 289.723L230.194 292.521C229.154 293.093 228.395 292.625 228.395 291.481V285.886C228.423 285.263 228.598 284.656 228.905 284.114C229.213 283.572 229.643 283.11 230.163 282.766Z" fill="#FF7600"/>
<path opacity="0.2" d="M230.163 282.766L235.04 279.968C236.08 279.386 236.839 279.854 236.839 281.008V286.603C236.806 287.228 236.626 287.837 236.314 288.379C236.001 288.921 235.565 289.382 235.04 289.723L230.194 292.521C229.154 293.093 228.395 292.625 228.395 291.481V285.886C228.423 285.263 228.598 284.656 228.905 284.114C229.213 283.572 229.643 283.11 230.163 282.766Z" fill="white"/>
<path d="M243.288 277.68L272.574 260.759C273.822 260.042 274.831 260.551 274.831 261.903C274.776 262.661 274.542 263.394 274.15 264.045C273.758 264.695 273.218 265.244 272.574 265.647L243.288 282.558C242.04 283.275 241.031 282.766 241.031 281.414C241.088 280.658 241.322 279.926 241.714 279.277C242.106 278.629 242.645 278.081 243.288 277.68Z" fill="#FF7600"/>
<path opacity="0.8" d="M243.288 277.68L272.574 260.759C273.822 260.042 274.831 260.551 274.831 261.903C274.776 262.661 274.542 263.394 274.15 264.045C273.758 264.695 273.218 265.244 272.574 265.647L243.288 282.558C242.04 283.275 241.031 282.766 241.031 281.414C241.088 280.658 241.322 279.926 241.714 279.277C242.106 278.629 242.645 278.081 243.288 277.68Z" fill="white"/>
<path d="M237.057 330.002L241.903 327.205C242.943 326.633 243.713 327.101 243.713 328.245V333.84C243.679 334.466 243.497 335.075 243.183 335.617C242.868 336.159 242.43 336.62 241.903 336.96L237.057 339.758C236.069 340.34 235.258 339.872 235.258 338.718V333.122C235.294 332.498 235.476 331.891 235.788 331.349C236.1 330.808 236.535 330.346 237.057 330.002Z" fill="#FF7600"/>
<path d="M229.486 349.014L249.486 337.47C250.11 337.116 250.609 337.366 250.609 338.042C250.582 338.42 250.466 338.787 250.271 339.112C250.076 339.437 249.807 339.712 249.486 339.914L229.486 351.458C228.862 351.811 228.363 351.562 228.363 350.886C228.39 350.507 228.506 350.141 228.701 349.815C228.896 349.49 229.165 349.215 229.486 349.014Z" fill="white"/>
<path d="M263.962 314.465L268.808 311.667C269.796 311.095 270.608 311.563 270.608 312.707V318.302C270.574 318.927 270.393 319.535 270.081 320.077C269.768 320.619 269.332 321.08 268.808 321.422L263.962 324.22C262.922 324.792 262.152 324.334 262.152 323.18V317.585C262.187 316.959 262.369 316.35 262.684 315.808C262.998 315.266 263.436 314.806 263.962 314.465Z" fill="#FF7600"/>
<path d="M256.381 333.476L276.38 321.932C277.004 321.568 277.503 321.828 277.503 322.504C277.477 322.881 277.361 323.246 277.166 323.57C276.97 323.893 276.701 324.166 276.38 324.366L256.381 335.92C255.757 336.284 255.258 336.024 255.258 335.358C255.282 334.978 255.397 334.609 255.592 334.282C255.788 333.954 256.058 333.678 256.381 333.476Z" fill="white"/>
<path d="M290.858 298.927L295.704 296.13C296.692 295.547 297.503 296.015 297.503 297.17V302.765C297.468 303.389 297.287 303.997 296.974 304.539C296.662 305.08 296.227 305.541 295.704 305.885L290.858 308.682C289.818 309.254 289.059 308.786 289.059 307.642V302.047C289.091 301.422 289.27 300.813 289.583 300.271C289.896 299.729 290.333 299.268 290.858 298.927Z" fill="#FF7600"/>
<path opacity="0.2" d="M237.057 330.002L241.903 327.205C242.943 326.633 243.713 327.101 243.713 328.245V333.84C243.679 334.466 243.497 335.075 243.183 335.617C242.868 336.159 242.43 336.62 241.903 336.96L237.057 339.758C236.069 340.34 235.258 339.872 235.258 338.718V333.122C235.294 332.498 235.476 331.891 235.788 331.349C236.1 330.808 236.535 330.346 237.057 330.002Z" fill="white"/>
<path opacity="0.2" d="M263.962 314.465L268.808 311.667C269.796 311.095 270.608 311.563 270.608 312.707V318.302C270.574 318.927 270.393 319.535 270.081 320.077C269.768 320.619 269.332 321.08 268.808 321.422L263.962 324.22C262.922 324.792 262.152 324.334 262.152 323.18V317.585C262.187 316.959 262.369 316.35 262.684 315.808C262.998 315.266 263.436 314.806 263.962 314.465Z" fill="white"/>
<path opacity="0.2" d="M290.858 298.927L295.704 296.13C296.692 295.547 297.503 296.015 297.503 297.17V302.765C297.468 303.389 297.287 303.997 296.974 304.539C296.662 305.08 296.227 305.541 295.704 305.885L290.858 308.682C289.818 309.254 289.059 308.786 289.059 307.642V302.047C289.091 301.422 289.27 300.813 289.583 300.271C289.896 299.729 290.333 299.268 290.858 298.927Z" fill="white"/>
<path d="M283.276 317.938L303.275 306.394C303.899 306.03 304.398 306.29 304.398 306.956C304.372 307.335 304.257 307.702 304.061 308.027C303.866 308.352 303.596 308.627 303.275 308.828L283.276 320.372C282.662 320.736 282.152 320.476 282.152 319.8C282.182 319.424 282.298 319.059 282.493 318.736C282.688 318.413 282.956 318.14 283.276 317.938Z" fill="white"/>
<mask id="mask0_285_1136" style="mask-type:luminance" maskUnits="userSpaceOnUse" x="163" y="141" width="43" height="56">
<path d="M184.173 144.414C172.504 150.987 163.051 167.367 163.051 180.991C163.051 194.615 172.504 200.21 184.173 193.471C195.842 186.732 205.296 170.362 205.296 156.884C205.296 143.406 195.832 137.831 184.173 144.414Z" fill="white"/>
</mask>
<g mask="url(#mask0_285_1136)">
<path d="M184.173 144.414C172.504 150.987 163.051 167.367 163.051 180.991C163.051 194.615 172.504 200.21 184.173 193.471C195.842 186.732 205.296 170.362 205.296 156.884C205.296 143.406 195.832 137.831 184.173 144.414Z" fill="#FAFAFA"/>
<path d="M194.406 186.399L177.496 190.934C177.204 191.029 176.894 191.049 176.593 190.994C176.292 190.939 176.009 190.809 175.77 190.617C175.532 190.425 175.345 190.177 175.227 189.894C175.108 189.612 175.063 189.304 175.093 188.999V160.212C175.153 157.829 175.949 155.523 177.371 153.611C178.794 151.699 180.774 150.273 183.039 149.531L188.821 147.982C193.22 146.806 196.788 149.677 196.788 154.388V183.186C196.769 183.901 196.53 184.593 196.104 185.168C195.678 185.743 195.085 186.173 194.406 186.399Z" fill="#37474F"/>
<path d="M195.218 193.846L193.439 185.994C193.439 185.994 193.439 175.396 191.931 174.418C190.423 173.441 189.986 173.254 189.986 173.254C191.921 172.588 195.998 172.089 197.266 175.812C198.483 179.327 200.303 187.99 201.166 192.254L195.218 193.846Z" fill="#F28F8F"/>
<path d="M195.073 193.887L189.041 173.347C191.714 172.307 195.146 171.444 196.81 174.2C198.307 176.675 200.699 189.644 201.167 192.254L195.073 193.887Z" fill="#FF7600"/>
<g opacity="0.4">
<path d="M195.073 193.887L189.041 173.347C191.714 172.307 195.146 171.444 196.81 174.2C198.307 176.675 200.699 189.644 201.167 192.254L195.073 193.887Z" fill="black"/>
</g>
<path d="M195.883 193.669L189.955 195.26C190.194 193.557 190.755 191.916 191.609 190.424C192.795 188.714 194.502 187.434 196.476 186.774C196.049 189.046 195.85 191.356 195.883 193.669Z" fill="#FF7600"/>
<path d="M195.883 193.669L189.955 195.26C190.194 193.557 190.755 191.916 191.609 190.424C192.795 188.714 194.502 187.434 196.476 186.774C196.049 189.046 195.85 191.356 195.883 193.669Z" fill="#FF7600"/>
<g opacity="0.7">
<path d="M195.883 193.669L189.955 195.26C190.194 193.557 190.755 191.916 191.609 190.424C192.795 188.714 194.502 187.434 196.476 186.774C196.049 189.046 195.85 191.356 195.883 193.669Z" fill="black"/>
</g>
<path d="M194.614 194.012L177.974 198.453L176.144 192.785C176.144 192.785 181.001 181.418 175 178.495C175.759 177.923 182.155 175.427 182.155 175.427L189.03 173.347C190.34 172.994 195.634 175.344 196.975 180.554C197.454 182.395 197.287 184.049 194.594 193.638C194.625 193.762 194.614 193.887 194.614 194.012Z" fill="#FF7600"/>
<path d="M193.243 151.518C194.387 151.934 195.801 154.638 195.666 161.158C195.552 166.691 193.888 168.438 193.056 169.104C191.809 169.728 190.435 170.052 189.041 170.05V173.347C189.041 173.347 191.204 175.427 191.069 177.008C190.934 178.589 187.949 179.712 185.932 178.776C184.458 177.945 183.184 176.802 182.198 175.427V167.835C182.046 168.01 181.861 168.153 181.653 168.256C181.445 168.359 181.219 168.419 180.988 168.434C180.756 168.448 180.525 168.417 180.306 168.341C180.087 168.265 179.885 168.146 179.712 167.991C179.388 167.769 179.111 167.484 178.898 167.152C178.685 166.821 178.541 166.451 178.474 166.063C178.408 165.675 178.419 165.278 178.508 164.894C178.598 164.511 178.763 164.149 178.995 163.831C180.035 162.469 181.855 162.271 182.562 163.634C183.442 161.497 185.018 159.72 187.034 158.59C190.32 156.593 192.109 154.814 193.243 151.518Z" fill="#FFA8A7"/>
<path d="M189.946 161.314C189.951 161.512 189.894 161.705 189.784 161.869C189.674 162.033 189.517 162.159 189.333 162.23C189.254 162.257 189.171 162.264 189.089 162.252C189.007 162.239 188.93 162.207 188.863 162.158C188.797 162.109 188.743 162.044 188.707 161.97C188.671 161.895 188.654 161.813 188.657 161.73C188.652 161.533 188.709 161.339 188.818 161.176C188.928 161.012 189.086 160.886 189.27 160.815C189.348 160.788 189.432 160.781 189.514 160.793C189.596 160.805 189.673 160.838 189.74 160.887C189.806 160.936 189.86 161.001 189.896 161.075C189.932 161.15 189.949 161.232 189.946 161.314Z" fill="#37474F"/>
<path d="M190.111 165.932L191.609 166.036C191.565 166.264 191.446 166.471 191.271 166.624C191.095 166.777 190.874 166.866 190.642 166.878C190.226 166.847 189.986 166.4 190.111 165.932Z" fill="#F28F8F"/>
<path d="M195.228 157.778L193.928 157.165C194.005 156.964 194.154 156.798 194.346 156.7C194.538 156.602 194.759 156.579 194.968 156.634C195.061 156.692 195.141 156.767 195.205 156.856C195.269 156.945 195.314 157.045 195.338 157.152C195.362 157.258 195.365 157.369 195.346 157.476C195.327 157.584 195.287 157.687 195.228 157.778Z" fill="#37474F"/>
<path d="M188.074 160.212L189.374 158.891C189.305 158.821 189.222 158.766 189.13 158.731C189.038 158.695 188.94 158.679 188.842 158.684C188.744 158.689 188.648 158.714 188.56 158.759C188.472 158.804 188.395 158.867 188.334 158.943C188.153 159.094 188.029 159.302 187.982 159.532C187.935 159.763 187.967 160.002 188.074 160.212Z" fill="#37474F"/>
<path d="M194.927 159.484C194.933 159.681 194.877 159.876 194.767 160.04C194.657 160.204 194.499 160.33 194.313 160.399C194.234 160.427 194.15 160.434 194.067 160.421C193.985 160.408 193.906 160.375 193.84 160.325C193.773 160.274 193.719 160.208 193.684 160.132C193.649 160.057 193.633 159.973 193.637 159.89C193.634 159.693 193.692 159.5 193.801 159.336C193.911 159.173 194.068 159.046 194.251 158.974C194.33 158.947 194.415 158.939 194.497 158.952C194.58 158.965 194.658 158.998 194.725 159.049C194.792 159.099 194.845 159.165 194.88 159.241C194.916 159.317 194.932 159.4 194.927 159.484Z" fill="#37474F"/>
<path d="M191.891 159.9L191.984 164.029L194.033 162.802L191.891 159.9Z" fill="#F28F8F"/>
<path d="M189.041 170.05C187.397 170.258 184.007 170.123 183.477 168.834C183.669 169.467 184.092 170.005 184.662 170.342C185.702 171.007 189.041 171.153 189.041 171.153V170.05Z" fill="#F28F8F"/>
<path d="M178.068 198.442L177.371 195.967L179.201 198.141L178.068 198.442Z" fill="#FF7600"/>
<path d="M176.706 198.806C175.959 195.248 174.948 191.751 173.68 188.344C171.933 183.55 173.888 179.41 175.063 178.495C176.238 177.58 182.218 175.427 182.218 175.427C184.381 181.584 184.974 189.831 185.026 196.581L176.706 198.806Z" fill="#FF7600"/>
<path opacity="0.4" d="M176.706 198.806C175.959 195.248 174.948 191.751 173.68 188.344C171.933 183.55 173.888 179.41 175.063 178.495C176.238 177.58 182.218 175.427 182.218 175.427C184.381 181.584 184.974 189.831 185.026 196.581L176.706 198.806Z" fill="black"/>
<path d="M173.752 199.597L167.814 201.188C167.648 201.076 167.491 200.951 167.346 200.814C167.346 200.814 170.154 189.977 171.048 186.378C171.943 182.78 172.629 180.305 175.042 178.495C179.378 181.314 177.371 189.145 177.371 189.145L173.752 199.597Z" fill="#FF7600"/>
<path opacity="0.4" d="M173.752 199.597L167.814 201.188C167.648 201.076 167.491 200.951 167.346 200.814C167.346 200.814 170.154 189.977 171.048 186.378C171.943 182.78 172.629 180.305 175.042 178.495C179.378 181.314 177.371 189.145 177.371 189.145L173.752 199.597Z" fill="black"/>
</g>
<path d="M87.2863 130.343V109.741C87.2239 105.747 89.8239 101.743 95.0967 98.7064C105.497 92.6848 122.407 92.6848 132.828 98.7064C138.101 101.743 140.701 105.747 140.638 109.741V130.27C140.638 134.243 138.08 141.346 132.828 144.373C122.428 150.394 105.517 150.394 95.0967 144.373C89.8967 141.378 87.2967 134.326 87.2863 130.385V130.343Z" fill="#EBEBEB"/>
<path d="M113.963 84.1776L157.986 109.595L113.963 135.013L69.9395 109.595L113.963 84.1776Z" fill="#FFDEC8"/>
<path d="M91.9355 122.294L113.62 109.918C113.709 109.866 113.808 109.833 113.91 109.82C114.012 109.807 114.116 109.814 114.215 109.841C114.315 109.868 114.408 109.915 114.49 109.978C114.571 110.041 114.64 110.119 114.691 110.209C114.742 110.298 114.775 110.397 114.788 110.499C114.801 110.601 114.794 110.705 114.767 110.805C114.74 110.904 114.694 110.997 114.631 111.079C114.567 111.16 114.489 111.229 114.4 111.28L93.4851 123.188L91.9355 122.294Z" fill="white"/>
<path d="M157.986 109.595V111.415L113.963 136.822V135.013L157.986 109.595Z" fill="#E6E6E6"/>
<path d="M69.9395 109.595V111.415L113.963 136.822V135.013L69.9395 109.595Z" fill="white"/>
<path d="M90.8438 123.479L92.1854 124.249C92.3882 123.918 92.6706 123.642 93.007 123.448L93.4749 123.178L91.9462 122.304C91.4946 122.607 91.1177 123.009 90.8438 123.479Z" fill="white"/>
<path d="M140.69 121.399L113.962 139.547L87.3066 121.441L113.962 136.822L140.69 121.399Z" fill="white"/>
<path d="M89.1272 144.882C89.5002 145.075 89.9138 145.175 90.3336 145.175C90.7533 145.175 91.167 145.075 91.54 144.882L93.5264 157.706C93.5264 160.129 87.2344 160.129 87.2344 157.706L89.1272 144.882Z" fill="#FFDEC8"/>
<path d="M89.0137 152.204L88.6185 159.234C88.4888 159.195 88.3634 159.143 88.2441 159.078L89.0137 152.204Z" fill="#EBEBEB"/>
<path d="M91.9882 159.286L91.1562 147.846L92.3938 159.12C92.2621 159.184 92.1266 159.239 91.9882 159.286Z" fill="#EBEBEB"/>
<path d="M90.5729 159.515H90.1777L90.3857 150.436L90.5729 159.515Z" fill="#EBEBEB"/>
<path d="M90.3236 145.954C90.7846 145.942 91.231 145.79 91.6028 145.517C91.7608 145.4 91.8683 145.227 91.9031 145.034C91.9379 144.841 91.8974 144.641 91.79 144.477C91.6765 144.315 91.5043 144.204 91.3101 144.167C91.1159 144.13 90.9149 144.17 90.75 144.279C90.651 144.375 90.5186 144.429 90.3808 144.429C90.2429 144.429 90.1105 144.375 90.0116 144.279C89.9307 144.207 89.8357 144.153 89.7326 144.12C89.6296 144.086 89.5207 144.075 89.413 144.086C89.3053 144.097 89.201 144.13 89.1069 144.184C89.0128 144.238 88.9309 144.31 88.8664 144.397C88.8019 144.484 88.7562 144.584 88.7322 144.689C88.7083 144.795 88.7066 144.904 88.7272 145.011C88.7479 145.117 88.7904 145.218 88.8522 145.307C88.914 145.396 88.9936 145.471 89.086 145.527C89.4439 145.795 89.8767 145.944 90.3236 145.954Z" fill="white"/>
<path d="M90.375 143.957C90.477 143.958 90.5782 143.939 90.6727 143.901C90.7673 143.863 90.8534 143.807 90.9259 143.735C90.9985 143.663 91.0561 143.578 91.0955 143.484C91.1348 143.39 91.155 143.289 91.155 143.187V125.008C91.1561 124.599 91.2641 124.198 91.4685 123.844C91.6728 123.49 91.9664 123.196 92.3198 122.99L114.399 110.406C114.574 110.306 114.703 110.141 114.758 109.946C114.812 109.751 114.788 109.543 114.69 109.366C114.641 109.279 114.576 109.201 114.497 109.139C114.418 109.077 114.328 109.031 114.231 109.004C114.134 108.976 114.033 108.969 113.933 108.981C113.834 108.993 113.737 109.025 113.65 109.075L91.519 121.68C90.9291 122.021 90.4389 122.51 90.0976 123.1C89.7563 123.689 89.5758 124.358 89.5742 125.039V143.218C89.5782 143.319 89.6021 143.419 89.6446 143.511C89.687 143.602 89.7471 143.685 89.8215 143.754C89.8959 143.822 89.9831 143.875 90.078 143.91C90.173 143.945 90.2739 143.961 90.375 143.957Z" fill="#FAFAFA"/>
<path d="M92.0811 143.187C92.0832 142.849 91.9849 142.519 91.7987 142.237C91.6126 141.955 91.3469 141.735 91.0354 141.604C90.724 141.473 90.3807 141.438 90.0492 141.503C89.7176 141.567 89.4127 141.729 89.1732 141.967C88.9336 142.205 88.7701 142.509 88.7035 142.84C88.6368 143.171 88.67 143.515 88.7988 143.827C88.9275 144.139 89.1461 144.406 89.4268 144.594C89.7075 144.782 90.0377 144.882 90.3755 144.882C90.599 144.884 90.8205 144.841 91.0274 144.756C91.2343 144.672 91.4224 144.547 91.5809 144.39C91.7394 144.232 91.8652 144.045 91.9511 143.838C92.0369 143.632 92.0811 143.411 92.0811 143.187Z" fill="#FFDEC8"/>
<path d="M88.6914 143.281C88.7624 143.457 88.8705 143.615 89.0084 143.746C89.1462 143.876 89.3105 143.975 89.4902 144.036C89.6698 144.098 89.8605 144.119 90.0492 144.1C90.238 144.081 90.4205 144.022 90.5842 143.926C90.793 143.8 90.9658 143.622 91.0858 143.41C91.2058 143.198 91.2688 142.958 91.2688 142.714C91.2688 142.47 91.2058 142.23 91.0858 142.018C90.9658 141.806 90.793 141.628 90.5842 141.502C90.9023 141.546 91.2015 141.68 91.4467 141.887C91.692 142.094 91.8734 142.367 91.9697 142.673C92.066 142.98 92.0732 143.307 91.9906 143.618C91.908 143.928 91.739 144.209 91.5031 144.427C91.2673 144.645 90.9743 144.791 90.6584 144.849C90.3425 144.907 90.0167 144.874 89.7188 144.754C89.4209 144.634 89.1632 144.432 88.9758 144.171C88.7884 143.91 88.6789 143.601 88.6602 143.281H88.6914Z" fill="#EBEBEB"/>
<path d="M391.674 133.151L383.635 128.523L388.055 127.587L392.454 130.655L391.674 133.151Z" fill="white"/>
<path d="M377.604 91.728C377.604 79.248 369.96 73.4552 360.568 78.8736L346.695 86.8816C337.335 92.3 329.67 106.902 329.67 119.423C329.67 119.933 329.67 120.463 329.67 120.91C329.67 121.191 329.67 121.43 329.67 121.701C329.67 121.971 329.722 122.19 329.743 122.429C329.764 122.668 329.805 122.98 329.847 123.25C330.056 124.728 330.426 126.179 330.949 127.577C331.168 128.097 331.396 128.617 331.646 129.054C331.761 129.295 331.893 129.528 332.041 129.75L332.176 129.969C332.408 130.341 332.676 130.69 332.977 131.009C333.144 131.196 333.3 131.394 333.476 131.57L334.017 132.09C334.204 132.236 334.381 132.413 334.579 132.558C334.765 132.709 334.964 132.844 335.172 132.964L335.785 133.318C336.58 133.747 337.441 134.038 338.333 134.181C338.401 134.164 338.473 134.164 338.541 134.181C338.78 134.181 338.999 134.233 339.238 134.233C339.491 134.254 339.745 134.254 339.997 134.233C340.666 134.24 341.333 134.167 341.984 134.014C342.373 133.937 342.758 133.84 343.138 133.723C344.353 133.351 345.519 132.834 346.612 132.184L360.485 124.176C361.436 123.624 362.346 123.005 363.21 122.325C363.21 122.158 363.21 122.013 363.21 121.857C363.21 121.701 363.21 121.368 363.21 121.181C363.21 120.765 363.21 120.338 363.21 119.912C363.179 109.273 369.585 96.72 377.604 91.728Z" fill="white"/>
<path d="M379.943 82.732L371.883 78.0936C371.935 78.0936 372.704 83.6992 372.704 83.6992L378.684 84.4064L379.943 82.732Z" fill="white"/>
<path d="M342.7 137.238L335.254 133.016L339.736 131.092L342.7 137.238Z" fill="white"/>
<path d="M346.695 132.309C346.642 135.391 345.652 138.384 343.856 140.889C343.523 141.326 344.033 141.71 344.407 141.513C346.107 140.631 347.613 139.418 348.838 137.946C351.19 135.166 352.835 131.858 353.632 128.305L346.695 132.309Z" fill="white"/>
<path d="M343.939 141.492L351.999 146.13C351.999 146.13 356.523 142.314 356.523 134.586L347.777 133.994C347.777 133.994 347.569 139.027 343.939 141.492Z" fill="white"/>
<path d="M365.404 118.758C365.404 119.146 365.404 119.52 365.404 119.881C365.404 120.089 365.404 120.266 365.404 120.463C365.404 120.661 365.404 120.827 365.467 121.014C365.529 121.202 365.467 121.43 365.54 121.638C365.66 122.56 365.876 123.466 366.184 124.342C366.229 124.502 366.284 124.658 366.351 124.81C366.427 125.019 366.513 125.224 366.611 125.424C366.692 125.617 366.786 125.805 366.891 125.986C366.974 126.167 367.071 126.341 367.183 126.506L367.287 126.672C367.47 126.958 367.671 127.233 367.89 127.494C368.003 127.645 368.129 127.788 368.264 127.92L368.66 128.305C368.794 128.431 368.937 128.549 369.086 128.658C369.228 128.768 369.378 128.869 369.533 128.96C369.689 129.054 369.835 129.147 370.001 129.23L370.48 129.459L370.979 129.636C371.283 129.728 371.592 129.804 371.904 129.865H372.06C372.233 129.881 372.407 129.881 372.58 129.865C372.767 129.886 372.955 129.886 373.142 129.865C373.589 129.865 374.035 129.819 374.473 129.73C374.824 129.67 375.171 129.59 375.513 129.49C376.426 129.211 377.302 128.823 378.123 128.336L388.523 122.325C389.451 121.789 390.325 121.166 391.134 120.463C391.425 120.214 391.716 119.943 392.007 119.673C392.532 119.184 393.028 118.667 393.495 118.123L394.16 117.52C394.337 117.312 394.503 117.094 394.68 116.875C394.723 116.8 394.776 116.73 394.836 116.667C395.529 115.752 396.168 114.797 396.75 113.807C396.906 113.547 397.051 113.277 397.207 113.006C397.363 112.736 397.509 112.466 397.655 112.185C397.8 111.904 397.935 111.623 398.081 111.353L398.476 110.5C398.611 110.219 398.736 109.918 398.861 109.647C399.079 109.148 399.277 108.607 399.454 108.129C399.454 108.035 399.527 107.942 399.558 107.848C399.672 107.557 399.766 107.266 399.86 106.974C400.047 106.413 400.213 105.851 400.38 105.269C400.745 103.902 401.02 102.512 401.201 101.109C401.201 100.87 401.253 100.641 401.284 100.402C401.315 100.162 401.284 99.996 401.336 99.788C401.388 99.58 401.336 99.372 401.336 99.164C401.336 98.7757 401.336 98.3909 401.336 98.0096C401.336 88.6496 395.606 84.2712 388.555 88.3376L378.155 94.3592C371.135 98.4048 365.404 109.356 365.404 118.758Z" fill="white"/>
<path d="M405.092 92.3312L397.094 87.7344L394.078 89.8664L403.407 95.5136L405.092 92.3312Z" fill="white"/>
<path d="M377.635 133.588L369.596 128.96L375.898 127.078L377.635 133.588Z" fill="white"/>
<path d="M387.016 123.334C387.016 124.998 389.096 127.265 391.478 127.691C391.8 127.754 391.717 128.461 391.332 128.731C389.913 129.502 388.275 129.773 386.683 129.501C385.649 129.47 384.642 129.165 383.765 128.617C382.888 128.068 382.172 127.297 381.691 126.381L387.016 123.334Z" fill="#FF7600"/>
<path d="M368.617 83.5016L354.733 91.52C345.373 96.9384 337.719 111.54 337.719 124.051C337.719 124.571 337.719 125.091 337.719 125.549C337.719 125.83 337.719 126.069 337.719 126.339C337.719 126.61 337.771 126.818 337.802 127.057C337.833 127.296 337.864 127.629 337.906 127.889C338.094 129.361 338.442 130.808 338.946 132.205C339.164 132.735 339.393 133.245 339.643 133.692C339.757 133.93 339.89 134.16 340.038 134.378C340.082 134.454 340.13 134.527 340.184 134.597C340.409 134.99 340.674 135.359 340.974 135.699C341.14 135.886 341.307 136.094 341.484 136.261L342.014 136.781C342.201 136.926 342.388 137.103 342.576 137.249C342.764 137.397 342.962 137.532 343.168 137.654L343.792 138.008C344.584 138.435 345.442 138.727 346.33 138.871C346.397 138.848 346.471 138.848 346.538 138.871C346.777 138.871 347.006 138.871 347.235 138.871C347.488 138.887 347.741 138.887 347.994 138.871C348.662 138.874 349.329 138.801 349.98 138.653C350.37 138.575 350.755 138.478 351.135 138.362C352.347 137.986 353.513 137.473 354.608 136.833C354.557 139.913 353.562 142.904 351.759 145.402C351.426 145.85 351.936 146.234 352.32 146.037C354.022 145.154 355.529 143.937 356.751 142.459C359.097 139.679 360.741 136.376 361.545 132.829L360.505 133.401L368.44 128.825C369.208 128.382 369.948 127.893 370.656 127.358C370.594 127.094 370.549 126.827 370.52 126.558C370.52 126.381 370.458 126.121 370.437 125.85C370.399 125.62 370.375 125.387 370.364 125.154V125.029C370.354 124.856 370.354 124.682 370.364 124.509C370.364 124.114 370.364 123.698 370.364 123.282C370.364 112.757 376.604 100.89 384.633 96.2416L385.517 95.7216C385.434 83.6888 377.873 78.156 368.617 83.5016Z" fill="white"/>
<path d="M396.646 92.9448L386.246 98.956C379.206 103.033 373.465 113.984 373.465 123.386C373.465 123.77 373.465 124.145 373.465 124.509C373.465 124.873 373.465 124.894 373.465 125.091C373.465 125.289 373.465 125.455 373.517 125.642C373.534 125.848 373.561 126.053 373.6 126.256C373.714 127.182 373.931 128.092 374.245 128.97C374.285 129.132 374.34 129.288 374.411 129.438C374.482 129.644 374.565 129.846 374.661 130.042C374.744 130.237 374.838 130.428 374.942 130.614C375.027 130.795 375.128 130.969 375.243 131.134C375.268 131.193 375.299 131.249 375.337 131.3C375.534 131.591 375.732 131.862 375.94 132.122C376.06 132.271 376.189 132.413 376.325 132.548L376.72 132.933C376.855 133.059 376.997 133.177 377.146 133.286C377.284 133.399 377.43 133.5 377.583 133.588C377.739 133.682 377.885 133.775 378.051 133.858L378.53 134.087L379.029 134.264C379.333 134.356 379.642 134.433 379.954 134.493H380.11C380.283 134.509 380.457 134.509 380.63 134.493C380.82 134.519 381.013 134.519 381.202 134.493C381.649 134.495 382.095 134.454 382.534 134.368C382.884 134.308 383.232 134.228 383.574 134.129C384.488 133.853 385.365 133.465 386.184 132.974L389.699 130.957C390.187 131.863 390.905 132.624 391.782 133.163C392.659 133.702 393.663 133.999 394.691 134.025C396.284 134.293 397.922 134.019 399.34 133.245C399.714 133.006 399.808 132.298 399.475 132.205C397.094 131.778 395.024 129.511 395.024 127.847L396.605 126.932C397.531 126.394 398.405 125.771 399.215 125.07C399.506 124.821 399.798 124.55 400.078 124.28C400.606 123.792 401.106 123.274 401.576 122.73C401.763 122.512 401.95 122.304 402.138 122.054C402.325 121.805 402.481 121.638 402.658 121.42L402.814 121.212C403.506 120.296 404.145 119.341 404.727 118.352L405.195 117.551C405.351 117.281 405.497 117.01 405.642 116.73C405.788 116.449 405.913 116.168 406.058 115.898L406.464 115.045C406.599 114.754 406.714 114.462 406.838 114.192C407.057 113.693 407.265 113.152 407.442 112.674L407.535 112.393C407.65 112.102 407.754 111.81 407.837 111.519C408.034 110.947 408.19 110.396 408.367 109.814C408.733 108.447 409.008 107.057 409.189 105.654C409.189 105.414 409.241 105.186 409.262 104.946C409.282 104.707 409.262 104.53 409.314 104.333C409.366 104.135 409.314 103.917 409.314 103.709C409.314 103.324 409.314 102.929 409.314 102.544C409.428 93.2152 403.687 88.8784 396.646 92.9448Z" fill="white"/>
<path d="M313.092 230.516C309.161 229.289 305.126 232.471 302.484 238.898C299.842 245.326 294.299 261.674 293.478 266.032C292.656 270.39 311.251 279.874 310.731 279.625C310.211 279.375 313.092 230.516 313.092 230.516Z" fill="#263238"/>
<path d="M304.45 381.794C303.889 382.002 303.754 383.063 303.67 385.164C303.608 386.755 303.265 389.532 305.126 390.083C306.988 390.634 309.723 390.354 310.919 388.856C312.406 386.984 313.415 385.341 315.537 383.053C317.388 381.077 319.374 379.226 320.123 376.449C320.799 373.932 320.238 372.85 318.522 372.122C316.171 371.082 312.469 374.39 310.628 374.91C309.037 375.357 305.002 381.586 304.45 381.794Z" fill="#263238"/>
<path d="M304.449 379.85V382.429C305.417 383.048 306.536 383.392 307.685 383.423C308.834 383.454 309.97 383.172 310.97 382.606C311.084 382.356 311.646 378.914 311.646 378.914L304.449 379.85Z" fill="#FFA8A7"/>
<path d="M325.344 396.666C325.344 396.666 324.605 398.913 324.21 400.826C323.888 402.386 323.44 404.986 323.981 406.172C324.522 407.358 326.664 408.106 329.961 408.075C332.104 408.075 335.442 409.521 337.72 410.79C339.997 412.058 345 412.63 347.485 412.339C350.418 411.996 353.465 410.259 353.944 409.074C354.422 407.888 353.788 406.588 346.861 403.634C346.799 403.634 337.231 400.514 333.872 396.802L325.344 396.666Z" fill="#263238"/>
<path d="M325.344 393.879C325.344 393.879 325.344 395.793 325.344 396.885C325.344 397.977 326.633 399.61 329.982 399.495C332.333 399.412 333.965 398.778 333.872 396.843V394.046L325.344 393.879Z" fill="#FFA8A7"/>
<path d="M302.765 345.602C303.34 341.031 304.36 336.528 305.812 332.155C305.812 332.155 304.897 320.559 304.45 309.566C303.971 297.69 304.45 282.755 304.252 279.802C304.252 279.802 342.576 272.043 343.262 285.771C343.949 299.499 341.744 334.443 341.297 340.475C340.85 346.507 339.799 351.842 338.551 361.618C337.303 371.394 333.871 394.046 333.871 394.046C332.546 394.721 331.074 395.059 329.586 395.03C328.099 395.001 326.641 394.606 325.343 393.879C325.343 393.879 322.65 366.423 322.93 359.466C323.15 354.298 324.038 349.18 325.572 344.24L324.21 323.076C323.565 313.227 322.889 308.516 322.733 304.221L321.911 303.805C321.911 303.805 321.069 320.798 320.622 326.83C320.174 332.862 319.207 338.645 317.502 349.846C315.983 359.559 311.48 380.12 311.48 380.12C307.102 382.491 304.491 379.818 304.491 379.818C304.491 379.818 301.6 354.026 302.765 345.602Z" fill="#455A64"/>
<path d="M322.734 304.252C322.734 304.252 313.436 299.666 308.787 295.537C308.787 295.537 313.103 301.621 318.781 304.325C318.781 304.325 320.799 325.426 320.789 325.01L321.954 304.21L322.734 304.252Z" fill="#37474F"/>
<path d="M331.011 226.169L328.744 238.649L317.471 237.827L319.831 223.673L331.011 226.169Z" fill="#FFA8A7"/>
<path d="M305.563 236.912C306.676 233.522 310.982 229.83 315.287 230.672C321.691 231.755 328.002 233.33 334.163 235.383C338.105 236.787 341.693 240.198 342.026 253.178L344.023 291.824L339.249 292.864L337.585 284.107L336.815 292.864C331.823 294.112 323.16 293.082 317.471 291.824C305.615 289.234 304.191 284.315 304.191 284.315C304.191 284.315 304.035 262.569 304.388 253.178C304.721 245.149 304.794 239.2 305.563 236.912Z" fill="#37474F"/>
<path d="M339.352 211.38C339.352 211.38 342.087 215.426 341.733 215.852C341.101 216.278 340.396 216.585 339.653 216.757L339.352 211.38Z" fill="#FFA8A7"/>
<path d="M331.012 198.567C333.643 199.898 338.188 202.353 339.436 211.973C340.726 221.853 339.03 225.035 337.699 226.346C336.794 227.23 331.886 227.282 329.431 226.543C326.311 225.618 319.426 222.986 316.265 217.911C312.542 211.942 311.71 203.944 315.911 200.762C321.808 196.29 328.786 197.444 331.012 198.567Z" fill="#FFA8A7"/>
<path d="M339.985 201.874C339.122 204.246 337.666 210.049 331.613 212.472C331.613 212.472 330.75 208.77 327.641 209.165C324.531 209.56 324.001 213.522 325.914 215.987C327.828 218.452 329.679 217.558 329.679 217.558C329.679 217.558 330.095 222.862 326.559 225.264C326.559 225.264 322.285 227.968 317.761 225.888C315.681 224.952 312.841 220.074 311.157 216.07C307.579 207.605 307.069 200.814 312.467 198.671C313.133 194.823 314.869 193.378 318.353 192.66C325.852 191.11 331.52 196.04 337.822 195.177C341.119 194.719 340.973 199.17 339.985 201.874Z" fill="#37474F"/>
<path d="M312.343 199.961L308.807 197.777C308.944 197.532 309.129 197.317 309.351 197.146C309.573 196.974 309.828 196.849 310.1 196.779C310.372 196.708 310.655 196.694 310.932 196.735C311.21 196.777 311.476 196.875 311.715 197.022C311.954 197.17 312.16 197.364 312.322 197.594C312.484 197.823 312.597 198.083 312.656 198.358C312.715 198.632 312.717 198.916 312.663 199.191C312.609 199.467 312.5 199.729 312.343 199.961Z" fill="#37474F"/>
<path d="M330.18 230.714L331.469 234.447C331.469 234.447 330.523 236.111 326.498 236.194C322.473 236.278 318.178 234.998 316.847 233.282C316.544 232.946 316.32 232.547 316.19 232.114C316.06 231.68 316.029 231.223 316.098 230.776C316.098 230.776 317.7 227.24 319.218 227.396L318.969 228.935C318.969 228.935 319.312 230.194 322.962 231.161C328.641 232.669 330.18 230.714 330.18 230.714Z" fill="#455A64"/>
<path d="M362.523 255.528C364.146 253.666 364.77 249.538 366.933 246.709C369.096 243.88 369.897 241.81 370.75 243.048C371.883 244.681 369.325 247.957 369.897 248.248C370.469 248.539 372.58 252.886 372.799 255.278C373.017 257.67 366.673 263.702 366.673 263.702L362.523 255.528Z" fill="#FFA8A7"/>
<path d="M330.18 230.714C330.441 230.708 330.699 230.774 330.927 230.904C331.154 231.034 331.341 231.224 331.469 231.452C332.105 232.6 332.675 233.785 333.175 234.998L331.469 234.447L330.18 230.714Z" fill="#455A64"/>
<path d="M369.721 247.915C369.721 247.915 377.386 247.25 378.498 247.915C379.611 248.581 379.278 251.898 378.498 253.937C377.718 255.975 373.808 257.296 370.178 259.75C370.178 259.376 369.721 247.915 369.721 247.915Z" fill="#FFA8A7"/>
<path d="M333.174 235.04C336.471 236.194 339.352 237.515 342.43 243.298C346.382 250.723 353.87 262.6 353.87 262.6L362.492 254.998C362.492 254.998 363.792 253.739 366.215 257.743C366.925 258.821 367.374 260.049 367.528 261.331C367.681 262.613 367.534 263.912 367.099 265.127C367.099 265.127 357.146 276.806 355.243 278.585C353.34 280.363 350.188 278.98 348.14 276.182C346.091 273.385 333.143 257.213 333.143 257.213C333.143 257.213 326.112 247.874 333.174 235.04Z" fill="#37474F"/>
<path d="M422.105 215.623H397.551C396.624 215.623 395.735 215.255 395.08 214.6C394.425 213.944 394.056 213.056 394.056 212.129V173.118C394.056 170.048 395.276 167.104 397.447 164.934C399.617 162.763 402.562 161.543 405.632 161.543H414.056C417.12 161.551 420.056 162.775 422.22 164.945C424.384 167.114 425.6 170.054 425.6 173.118V212.129C425.6 213.056 425.231 213.944 424.576 214.6C423.921 215.255 423.032 215.623 422.105 215.623Z" fill="#37474F"/>
<path d="M393.412 202.311C391.03 209.331 387.036 229.528 387.036 229.528C387.036 229.528 378.716 239.699 376.002 242.164C374.515 243.537 371.166 246.002 371.166 246.002L377.25 250.474C382.743 246.248 387.903 241.607 392.684 236.59C393.747 235.458 394.493 234.066 394.847 232.554L399.007 214.708C399.007 214.708 399.007 200.356 401.201 198.474C403.396 196.591 404.03 196.196 404.03 196.196C401.212 195.988 395.284 196.789 393.412 202.311Z" fill="#F28F8F"/>
<path d="M405.33 195.988C401.45 195.541 396.479 195.624 394.056 199.961C391.633 204.298 387.598 226.72 387.598 226.72C387.598 226.72 391.414 229.684 395.533 229.632L405.33 195.988Z" fill="#FF7600"/>
<path d="M394.545 216.882C395.244 220.224 395.513 223.642 395.346 227.053C395.045 231.546 391.945 239.387 391.945 239.387C391.945 239.387 394.369 242.05 401.201 240.978C406.765 240.115 404.8 223.298 401.607 220.074C399.745 218.151 397.22 217.009 394.545 216.882Z" fill="#FF7600"/>
<path opacity="0.3" d="M394.545 216.882C395.244 220.224 395.513 223.642 395.346 227.053C395.045 231.546 391.945 239.387 391.945 239.387C391.945 239.387 394.369 242.05 401.201 240.978C406.765 240.115 404.8 223.298 401.607 220.074C399.745 218.151 397.22 217.009 394.545 216.882Z" fill="black"/>
<path d="M407.4 335.65C407.444 336.417 407.251 337.179 406.848 337.834C405.82 339.533 404.61 341.116 403.24 342.555C401.316 344.635 398.435 347.079 396.365 348.878C395.221 349.918 395.18 351.395 396.823 351.926C399.886 352.672 403.118 352.221 405.86 350.667C407.94 349.565 410.832 344.427 412.537 343.699C414.503 342.815 415.595 342.378 416.26 341.474C416.764 340.959 417.078 340.289 417.152 339.574C417.225 338.858 417.054 338.138 416.666 337.532C415.74 335.806 414.347 333.154 413.775 333.455L413.952 333.996C413.504 335.4 409.677 337.033 407.712 336.648L407.4 335.65Z" fill="#37474F"/>
<path d="M427.441 276.973C428.325 267.613 430.862 252.554 428.262 241.405L393.734 243.235C392.777 254.228 391.654 288.548 392.861 292.479C394.254 297.118 406.703 329.222 407.421 335.681C407.47 336.439 407.277 337.193 406.869 337.834C405.842 339.537 404.632 341.124 403.261 342.566C402.325 343.606 401.181 344.646 399.974 345.686C399.873 345.834 399.812 346.006 399.797 346.185C399.797 347.225 402.418 347.547 403.957 347.1C405.877 346.423 407.531 345.151 408.679 343.47C409.563 342.295 411.549 340.038 412.839 338.343C413.269 337.82 413.636 337.247 413.931 336.638C414.275 335.876 414.334 335.016 414.097 334.214L414.014 333.954C413.339 331.849 412.92 329.67 412.766 327.465C412.288 320.382 411.071 304.023 409.948 299.666C409.168 296.49 407.983 293.428 406.422 290.555L410.364 259.886C410.364 259.886 410.78 286.926 412.007 293.821C412.974 299.343 413.349 306.249 414.482 315.723C415.522 324.792 416.729 340.766 416.729 340.766C416.76 340.772 416.791 340.772 416.822 340.766V348.4H423.281V343.97C423.281 341.969 423.448 339.973 423.78 338C424.82 331.968 426.983 318.167 427.43 313.498C428.137 306.093 425.465 296.785 425.465 296.785C425.465 296.785 426.577 286.104 427.441 276.973Z" fill="#FFA8A7"/>
<path d="M415.273 196.31C415.273 196.31 424.56 197.35 425.673 197.881C416.958 204.006 424.019 217.641 424.019 217.641L420.681 228.114C424.394 232.866 427.597 235.695 429.583 240.906C431.788 246.73 433.743 255.393 433.223 273.146C424.903 279.386 399.59 278.71 389.73 273.146C389.73 273.146 391.394 257.473 393.36 245.294C394.66 237.255 397.728 228.498 397.208 225.534C393.298 213.512 393.048 211.349 393.755 208.666C395.7 201.115 403.396 196.009 405.289 196.009L415.273 196.31Z" fill="#FF7600"/>
<path opacity="0.6" d="M415.273 196.31C415.273 196.31 424.56 197.35 425.673 197.881C416.958 204.006 424.019 217.641 424.019 217.641L420.681 228.114C424.394 232.866 427.597 235.695 429.583 240.906C431.788 246.73 433.743 255.393 433.223 273.146C424.903 279.386 399.59 278.71 389.73 273.146C389.73 273.146 391.394 257.473 393.36 245.294C394.66 237.255 397.728 228.498 397.208 225.534C393.298 213.512 393.048 211.349 393.755 208.666C395.7 201.115 403.396 196.009 405.289 196.009L415.273 196.31Z" fill="white"/>
<path d="M416.76 345.166V344.24C415.949 347.35 414.327 350.189 412.059 352.466C409.979 354.349 407.171 356.533 406.443 358.644C405.715 360.755 409.782 361.702 412.465 361.431C415.065 361.113 417.46 359.86 419.204 357.906C420.91 355.95 420.878 354.619 421.669 353.538C422.459 352.456 424.3 351.27 424.726 350.022C424.86 348.858 424.732 347.678 424.352 346.57C424.05 345.415 423.718 344.136 423.312 344.24V344.958C422.376 345.694 421.216 346.087 420.026 346.07C419.121 346.091 416.75 345.894 416.76 345.166Z" fill="#37474F"/>
<path d="M423.28 344.937C422.344 345.673 421.184 346.066 419.994 346.05C419.037 346.05 416.707 345.894 416.718 345.166V344.24C415.906 347.35 414.284 350.189 412.017 352.466L410.446 353.87C409.344 355.098 409.656 356.169 412.246 356.387C414.835 356.606 417.113 355.046 419.068 352.643C420.735 350.227 422.147 347.645 423.28 344.937Z" fill="#FFA8A7"/>
<path d="M399.236 167.918C397.572 168.906 395.513 173.118 395.71 181.875C395.887 189.322 398.3 191.162 399.517 191.693C400.734 192.223 403.063 191.901 405.33 191.526V195.988C405.33 195.988 402.21 199.638 402.387 201.687C402.564 203.736 406.922 204.214 409.865 202.218C411.99 200.57 413.819 198.572 415.273 196.31L415.221 186.046C415.221 186.046 416.562 187.335 418.83 185.359C420.702 183.726 421.326 180.96 419.87 179.483C419.492 179.128 419.034 178.868 418.535 178.725C418.036 178.582 417.51 178.561 417.002 178.663C416.493 178.765 416.016 178.987 415.61 179.31C415.204 179.634 414.882 180.05 414.67 180.523C414.67 180.523 413.411 177.018 408.18 175.323C403.458 173.753 400.89 171.974 399.236 167.918Z" fill="#FFA8A7"/>
<path d="M404.029 180.014C404.029 180.197 404.083 180.376 404.185 180.529C404.286 180.682 404.43 180.802 404.598 180.874C404.767 180.946 404.953 180.966 405.133 180.934C405.313 180.901 405.48 180.816 405.613 180.689C405.745 180.562 405.837 180.399 405.878 180.22C405.919 180.042 405.906 179.855 405.841 179.683C405.777 179.512 405.663 179.363 405.515 179.255C405.367 179.148 405.19 179.086 405.007 179.078C404.881 179.075 404.756 179.097 404.639 179.142C404.522 179.188 404.415 179.256 404.324 179.343C404.233 179.43 404.161 179.534 404.11 179.649C404.059 179.764 404.032 179.888 404.029 180.014Z" fill="#37474F"/>
<path d="M403.779 186.316L401.605 187.013C401.644 187.158 401.711 187.294 401.803 187.412C401.895 187.531 402.01 187.629 402.141 187.702C402.272 187.775 402.417 187.821 402.566 187.836C402.715 187.852 402.866 187.837 403.009 187.793C403.303 187.693 403.547 187.484 403.69 187.209C403.833 186.934 403.865 186.614 403.779 186.316Z" fill="#F28F8F"/>
<path d="M396.353 177.133L398.246 175.822C398.166 175.694 398.061 175.584 397.937 175.498C397.813 175.412 397.673 175.352 397.525 175.322C397.377 175.292 397.225 175.292 397.077 175.323C396.929 175.353 396.789 175.414 396.666 175.5C396.412 175.679 396.238 175.949 396.179 176.253C396.121 176.558 396.184 176.873 396.353 177.133Z" fill="#37474F"/>
<path d="M406.755 177.84L404.852 176.53C404.932 176.402 405.037 176.292 405.16 176.206C405.284 176.119 405.424 176.059 405.571 176.028C405.719 175.997 405.871 175.996 406.019 176.025C406.167 176.054 406.308 176.112 406.432 176.197C406.684 176.379 406.858 176.65 406.917 176.955C406.977 177.26 406.919 177.576 406.755 177.84Z" fill="#37474F"/>
<path d="M396.791 179.327C396.789 179.511 396.841 179.691 396.941 179.845C397.041 180 397.184 180.121 397.353 180.195C397.521 180.268 397.707 180.29 397.888 180.259C398.069 180.227 398.237 180.143 398.371 180.016C398.504 179.89 398.597 179.727 398.639 179.548C398.68 179.369 398.668 179.182 398.604 179.01C398.54 178.838 398.426 178.688 398.278 178.58C398.129 178.472 397.952 178.41 397.769 178.402C397.517 178.396 397.273 178.49 397.09 178.663C396.906 178.837 396.799 179.075 396.791 179.327Z" fill="#37474F"/>
<path d="M401.201 178.797L401.056 184.434L398.092 183.518L401.201 178.797Z" fill="#F28F8F"/>
<path d="M405.33 191.526C407.722 191.204 412.61 189.79 413.421 187.845C413.113 188.83 412.51 189.697 411.695 190.33C410.218 191.589 405.33 193.014 405.33 193.014V191.526Z" fill="#F28F8F"/>
<path d="M422.293 222.404L415.73 231.286L420.681 228.114L422.293 222.404Z" fill="#FF7600"/>
<path d="M370.594 246.002C369.19 247.811 368.327 251.326 367.588 252.512C366.85 253.698 365.966 254.727 367.588 254.946C369.211 255.164 371.582 251.992 372.466 250.068C372.914 248.983 373.758 248.109 374.827 247.624C374.067 247.364 374.463 244.317 373.932 243.89C373.932 243.89 371.166 245.024 370.594 246.002Z" fill="#F28F8F"/>
<path d="M370.178 259.73C371.644 258.638 371.696 257.296 371.977 255.164C372.258 253.032 378.134 250.723 378.321 252.314C378.508 253.906 379.039 255.237 377.281 257.171C375.523 259.106 372.861 261.165 370.178 259.73Z" fill="#F28F8F"/>
<path d="M415.272 196.31C415.272 196.31 423.966 197.07 425.672 197.881C427.378 198.692 430.217 203.601 427.679 210.725C425.142 217.849 422.833 226.231 423.093 227.916C423.353 229.601 429.416 238.316 429.416 238.316C427.743 239.551 425.852 240.458 423.842 240.989L420.722 234.208L421.45 241.415C418.316 242.177 415.096 242.527 411.871 242.455C411.871 242.455 408.928 214.77 415.272 196.31Z" fill="#FF7600"/>
<path d="M436.695 230.266C437.392 226.169 436.695 224.827 435.26 220.813L427.98 225.524C428.577 227.039 428.928 228.64 429.02 230.266C428.957 231.452 427.345 243.204 425.837 247.302C425.566 248.03 425.032 248.631 424.34 248.986C422.84 249.902 421.481 251.03 420.305 252.335C419.192 253.375 418.297 253.562 418.412 253.916C418.584 254.299 418.891 254.606 419.275 254.777C419.659 254.947 420.092 254.971 420.492 254.842C421.398 254.547 422.267 254.15 423.081 253.656C422.359 255.186 421.397 256.59 420.232 257.816C417.559 260.666 417.32 262.517 422.312 262.902C425.432 263.141 428.042 261.394 430.861 254.686C431.734 252.226 432.453 249.715 433.013 247.166C434.532 241.353 436.009 234.395 436.695 230.266Z" fill="#FFA8A7"/>
<path d="M425.672 197.881C429.177 199.451 430.175 202.55 431.475 207.106C432.775 211.661 436.852 225.326 436.852 225.326C436.852 225.326 433.358 229.486 428.532 228.322L422.292 213.169C422.292 213.169 419.38 203.278 425.672 197.881Z" fill="#FF7600"/>
</svg>
